<svg width="39" height="66" viewBox="0 0 39 66" xmlns="http://www.w3.org/2000/svg"><title>Untitled 2</title><g fill="none" fill-rule="evenodd"><path d="M5.125 42.5h10.25v2.563H5.125V42.5zm0 5.125h10.25v2.563H5.125v-2.563zm0 5.125h10.25v2.563H5.125V52.75zm28.188-7.688h-10.25V42.5h10.25v2.563zm0 5.126h-10.25v-2.563h10.25v2.563zm0 5.124h-10.25V52.75h10.25v2.563zm5.124-17.937v23.063c-.026.72-.28 1.32-.76 1.8-.48.482-1.08.735-1.802.762H21.78l-2.56 2.563L16.655 63H2.563c-.72-.027-1.322-.28-1.802-.76S.028 61.157 0 60.436V37.376c.027-.72.28-1.32.76-1.802.48-.48 1.082-.734 1.802-.76h14.094l2.563 2.562 2.56-2.563h14.095c.72.027 1.32.28 1.802.76.48.482.734 1.082.76 1.803zm-20.5 1.28l-1.28-1.28H2.56v23.063h15.376V38.656zm17.938-1.28H21.78l-1.28 1.28v21.782h15.375V37.376z" fill="#DCF1F3"/><path d="M5.125 8.5h10.25v2.563H5.125V8.5zm0 5.125h10.25v2.563H5.125v-2.563zm0 5.125h10.25v2.563H5.125V18.75zm28.188-7.688h-10.25V8.5h10.25v2.563zm0 5.126h-10.25v-2.563h10.25v2.563zm0 5.125h-10.25V18.75h10.25v2.563zm5.124-17.938v23.063c-.026.72-.28 1.32-.76 1.8-.48.482-1.08.735-1.802.762H21.78l-2.56 2.563L16.655 29H2.563c-.72-.027-1.322-.28-1.802-.76S.028 27.157 0 26.437V3.375c.027-.72.28-1.32.76-1.802.48-.48 1.082-.734 1.802-.76h14.094l2.563 2.562L21.78.812h14.095c.72.027 1.32.28 1.802.76.48.482.734 1.082.76 1.803zm-20.5 1.28l-1.28-1.28H2.56v23.063h15.376V4.655zm17.938-1.28H21.78l-1.28 1.28v21.782h15.375V3.375z" fill="#FFF"/></g></svg>