<?xml version="1.0" encoding="UTF-8" standalone="no"?>
<svg width="13px" height="10px" viewBox="0 0 13 10" version="1.1" xmlns="http://www.w3.org/2000/svg" xmlns:xlink="http://www.w3.org/1999/xlink" xmlns:sketch="http://www.bohemiancoding.com/sketch/ns">
    <!-- Generator: Sketch 3.5.1 (25234) - http://www.bohemiancoding.com/sketch -->
    <title>Untitled 2</title>
    <desc>Created with Sketch.</desc>
    <defs></defs>
    <g id="Page-1" stroke="none" stroke-width="1" fill="none" fill-rule="evenodd" sketch:type="MSPage">
        <path d="M11.4375,6 L0.625,6 C0.343748594,6 0.171875312,5.90885508 0.109375,5.7265625 C0.0468746875,5.54426992 0.0208332813,5.30208484 0.03125,5 C0.0208332813,4.69791516 0.0468746875,4.45573008 0.109375,4.2734375 C0.171875312,4.09114492 0.343748594,4 0.625,4 L11.4375,4 C11.7187514,4 11.8906247,4.09114492 11.953125,4.2734375 C12.0156253,4.45573008 12.0416667,4.69791516 12.03125,5 C12.0416667,5.30208484 12.0156253,5.54426992 11.953125,5.7265625 C11.8906247,5.90885508 11.7187514,6 11.4375,6 L11.4375,6 Z M11.4375,2 L0.625,2 C0.343748594,2 0.171875312,1.90885508 0.109375,1.7265625 C0.0468746875,1.54426992 0.0208332813,1.30208484 0.03125,1 C0.0208332813,0.697915156 0.0468746875,0.455730078 0.109375,0.2734375 C0.171875312,0.0911449219 0.343748594,0 0.625,0 L11.4375,0 C11.7187514,0 11.8906247,0.0911449219 11.953125,0.2734375 C12.0156253,0.455730078 12.0416667,0.697915156 12.03125,1 C12.0416667,1.30208484 12.0156253,1.54426992 11.953125,1.7265625 C11.8906247,1.90885508 11.7187514,2 11.4375,2 L11.4375,2 Z M0.625,8 L11.4375,8 C11.7187514,8 11.8906247,8.09114492 11.953125,8.2734375 C12.0156253,8.45573008 12.0416667,8.69791516 12.03125,9 C12.0416667,9.30208484 12.0156253,9.54426992 11.953125,9.7265625 C11.8906247,9.90885508 11.7187514,10 11.4375,10 L0.625,10 C0.343748594,10 0.171875312,9.90885508 0.109375,9.7265625 C0.0468746875,9.54426992 0.0208332813,9.30208484 0.03125,9 C0.0208332813,8.69791516 0.0468746875,8.45573008 0.109375,8.2734375 C0.171875312,8.09114492 0.343748594,8 0.625,8 L0.625,8 Z" id="ïž" fill="#379199" sketch:type="MSShapeGroup"></path>
    </g>
</svg>