<svg width="41" height="77" viewBox="0 0 41 77" xmlns="http://www.w3.org/2000/svg"><title>Untitled 2</title><g fill="none" fill-rule="evenodd"><path d="M25.625.25c.694.027 1.288.274 1.782.74.494.468.754 1.075.78 1.823V31c-.026.747-.286 1.355-.78 1.822-.494.467-1.088.714-1.782.74-.454 0-.894-.12-1.32-.36-1.042-.64-2.35-1.508-3.925-2.602-1.575-1.095-3.243-2.203-5.005-3.324v8.85H10.25V24.353c-.934-.48-1.788-.828-2.563-1.04-1.868.025-3.59-.455-5.165-1.443C.948 20.884.107 19.23 0 16.907c.107-2.322.948-3.977 2.522-4.965 1.575-.986 3.297-1.467 5.165-1.44 2.136-.747 4.925-2.25 8.37-4.504 3.442-2.256 6.19-4.05 8.247-5.386.427-.24.867-.36 1.32-.36zm0 2.563l-1.722 1.12L20.5 6.177v21.38l1.28.88c1.576 1.096 2.857 1.95 3.845 2.564V2.812zm5.125 12.812H41v2.563H30.75v-2.563zm0 5.125L41 25.875v2.563l-10.25-5.125V20.75zM41 5.375v2.563l-10.25 5.125V10.5L41 5.375z" fill="#379199"/><path d="M25.625 40.25c.694.027 1.288.274 1.782.74.494.468.754 1.075.78 1.822V71c-.026.747-.286 1.355-.78 1.822-.494.467-1.088.714-1.782.74-.454 0-.894-.12-1.32-.36-1.042-.64-2.35-1.508-3.925-2.602-1.575-1.095-3.243-2.203-5.005-3.324v8.85H10.25V64.353c-.934-.48-1.788-.828-2.563-1.04-1.868.025-3.59-.455-5.165-1.443C.948 60.884.107 59.23 0 56.907c.107-2.322.948-3.977 2.522-4.965 1.575-.986 3.297-1.467 5.165-1.44 2.136-.747 4.925-2.25 8.37-4.504 3.442-2.256 6.19-4.05 8.247-5.386.427-.24.867-.36 1.32-.36zm0 2.563l-1.722 1.12-3.403 2.243v21.38l1.28.882c1.576 1.094 2.857 1.948 3.845 2.562V42.812zm5.125 12.812H41v2.563H30.75v-2.563zm0 5.125L41 65.875v2.563l-10.25-5.126V60.75zM41 45.375v2.563l-10.25 5.124V50.5L41 45.375z" fill="#6CC2CA"/></g></svg>