<?xml version="1.0" encoding="UTF-8" standalone="no"?>
<svg width="356px" height="102px" viewBox="0 0 356 102" version="1.1" xmlns="http://www.w3.org/2000/svg" xmlns:xlink="http://www.w3.org/1999/xlink" xmlns:sketch="http://www.bohemiancoding.com/sketch/ns">
    <!-- Generator: Sketch 3.5.1 (25234) - http://www.bohemiancoding.com/sketch -->
    <title>Untitled 2</title>
    <desc>Created with Sketch.</desc>
    <defs></defs>
    <g id="Page-1" stroke="none" stroke-width="1" fill="none" fill-rule="evenodd" sketch:type="MSPage">
        <path d="M199.640625,93.1601562 C200.503911,95.3515735 200.354498,97.3603424 199.192383,99.1865234 C198.030268,101.012704 196.253918,101.992187 193.863281,102.125 L117.761719,102.125 C115.371082,101.992187 113.594732,101.012704 112.432617,99.1865234 C111.270502,97.3603424 111.121089,95.3515735 111.984375,93.1601562 L133.5,44.75 L133.5,19.25 L127.125,19.25 L127.125,12.875 L184.5,12.875 L184.5,19.25 L178.125,19.25 L178.125,44.75 L199.640625,93.1601562 L199.640625,93.1601562 Z M179.71875,63.875 L171.75,44.75 L171.75,19.25 L139.875,19.25 L139.875,44.75 L131.90625,63.875 L179.71875,63.875 Z M159,51.125 L165.375,51.125 L165.375,57.5 L159,57.5 L159,51.125 Z M152.625,44.75 L146.25,44.75 L146.25,38.375 L152.625,38.375 L152.625,44.75 Z M152.625,25.625 L159,25.625 L159,32 L152.625,32 L152.625,25.625 Z M152.625,6.5 L146.25,6.5 L146.25,0.125 L152.625,0.125 L152.625,6.5 Z" id="ïƒ" fill="#FFFFFF" sketch:type="MSShapeGroup"></path>
        <g id="illustration-top" sketch:type="MSLayerGroup" transform="translate(0.000000, 1.000000)" fill="#FFFFFF">
            <path d="M329.235352,58.9262695 L337.861816,53.3847656 L355.97168,63.8964844 L298.785645,100.401855 L241.599609,63.8964844 L259.652344,53.3847656 L268.335938,58.9262695 L259.138184,64.2392578 L298.785645,89.5473633 L338.375977,64.2392578 L329.235352,58.9262695 Z M298.785645,69.6665039 L241.599609,33.1611328 L298.785645,0.0263671875 L355.97168,33.1611328 L298.785645,69.6665039 Z M259.138184,33.5610352 L298.785645,58.8691406 L338.375977,33.5610352 L298.785645,10.5952148 L259.138184,33.5610352 Z" id="layers" sketch:type="MSShapeGroup"></path>
            <path d="M51.828,29.89 L61.672,53.525 L38.602,99.719 L24.04,99.719 L0.97,53.524 L10.81,29.89 L10.81,16.047 L19.014,16.047 L19.014,31.53 L9.992,53.217 L27.22,87.67 L27.22,61.01 C25.75,60.258 24.56,59.156 23.656,57.703 C22.75,56.251 22.296,54.67 22.296,52.961 C22.296,50.467 23.176,48.339 24.936,46.579 C26.698,44.819 28.826,43.939 31.32,43.939 C33.815,43.939 35.943,44.819 37.703,46.579 C39.463,48.339 40.343,50.467 40.343,52.962 C40.343,54.672 39.891,56.252 38.985,57.705 C38.079,59.158 36.892,60.26 35.422,61.012 L35.422,87.724 L52.648,53.219 L43.625,31.532 L43.625,16.047 L51.828,16.047 L51.828,29.89 L51.828,29.89 Z M58.39,2.28 L58.39,10.484 L4.25,10.484 L4.25,2.28 L58.39,2.28 L58.39,2.28 Z" id="Shape" sketch:type="MSShapeGroup"></path>
        </g>
    </g>
</svg>