<svg width="601" height="111" viewBox="0 0 601 111" xmlns="http://www.w3.org/2000/svg"><title>Untitled 2</title><g fill="#FFF" fill-rule="evenodd"><path d="M156.107 81.623c-.24-1.114-.36-3.264-.36-6.45 0-3.185.6-6.57 1.793-10.154h1.075c-.08.875-.12 1.752-.12 2.627 0 4.858 1.473 8.9 4.42 12.125 2.947 3.225 6.85 4.838 11.707 4.838 5.017 0 9.138-1.513 12.364-4.54 3.225-3.025 4.837-6.828 4.837-11.408 0-4.578-1.552-8.302-4.658-11.17l-22.935-21.26c-4.3-3.982-6.45-8.8-6.45-14.455 0-5.654 1.89-10.492 5.673-14.514 3.783-4.02 8.9-6.032 15.35-6.032 3.026 0 6.45.4 10.273 1.195h4.66v14.693h-1.076c0-3.742-1.295-6.73-3.883-8.96-2.588-2.23-5.913-3.344-9.974-3.344-4.06 0-7.466 1.354-10.213 4.062-2.748 2.708-4.122 6.092-4.122 10.153 0 4.06 1.593 7.565 4.78 10.51l23.53 21.742c3.982 3.664 5.974 8.68 5.974 15.05 0 6.372-2.03 11.61-6.092 15.71-4.062 4.1-9.477 6.15-16.246 6.15-3.504 0-7.227-.536-11.17-1.61-3.94-1.077-6.987-2.728-9.137-4.96zM213.803 85.326c1.91 0 3.524-.617 4.838-1.85 1.315-1.235 2.01-2.728 2.09-4.48v-56.74c0-1.753-.676-3.227-2.03-4.42-1.354-1.196-2.986-1.793-4.897-1.793h-1.672v-1.195h34.88c3.266 0 6.133-.238 8.602-.716 2.468-.478 4.06-.876 4.778-1.195v13.618l-1.314-.12v-1.79c0-1.674-.558-3.107-1.672-4.302-1.116-1.194-2.55-1.792-4.3-1.792h-24.847v30.343h20.427c1.592 0 2.807-.478 3.643-1.434.836-.956 1.254-2.15 1.254-3.584v-1.553h1.315v16.723h-1.314v-1.553c0-2.23-.835-3.742-2.507-4.54-.638-.238-1.314-.396-2.03-.477h-20.786v30.342h18.754c3.664 0 6.75-.637 9.26-1.912 2.507-1.273 4.42-2.786 5.733-4.54 1.314-1.75 2.647-4.06 4-6.927h1.196l-6.57 17.08h-48.5v-1.194h1.673zM357.626 16.043c-1.753 0-3.266.578-4.54 1.732-1.274 1.155-1.95 2.568-2.03 4.24v50.888c0 4.62.278 9 .836 13.14l.24 2.15h-1.076l-62.116-58.89v49.812c0 1.752.636 3.225 1.91 4.42 1.275 1.194 2.828 1.79 4.66 1.79h2.03v1.196h-22.577v-1.194h2.03c1.832 0 3.385-.597 4.66-1.792 1.274-1.194 1.91-2.667 1.91-4.42V27.99c0-4.857-.278-9.198-.835-13.02l-.24-1.91 1.315.118L345.8 71.59V22.015c-.16-1.673-.877-3.086-2.15-4.24-1.275-1.155-2.788-1.733-4.54-1.733h-2.03v-1.195h22.576v1.195h-2.03zM372.08 85.326c1.91 0 3.523-.617 4.837-1.85 1.314-1.235 2.01-2.728 2.09-4.48v-56.74c0-1.753-.677-3.227-2.03-4.42-1.354-1.196-2.986-1.793-4.897-1.793h-1.673v-1.195h34.88c3.265 0 6.132-.238 8.6-.716 2.47-.478 4.063-.876 4.78-1.195v13.618l-1.314-.12v-1.79c0-1.674-.558-3.107-1.673-4.302-1.115-1.194-2.548-1.792-4.3-1.792h-24.847v30.343h20.427c1.592 0 2.807-.478 3.643-1.434.837-.956 1.255-2.15 1.255-3.584v-1.553h1.314v16.723h-1.314v-1.553c0-2.23-.836-3.742-2.51-4.54-.636-.238-1.313-.396-2.03-.477h-20.785v30.342h18.755c3.663 0 6.75-.637 9.257-1.912 2.51-1.273 4.42-2.786 5.734-4.54 1.313-1.75 2.647-4.06 4-6.927h1.195l-6.57 17.08h-48.498v-1.194h1.673zM445.603 78.04c-7.047-6.69-10.57-15.828-10.57-27.415s3.523-20.725 10.57-27.415c7.048-6.69 16.664-10.034 28.85-10.034 4.935 0 9.913.637 14.93 1.91 5.017 1.276 9.357 3.028 13.02 5.257l2.63 16.963h-1.076c-3.425-13.697-13.3-20.546-29.625-20.546-9.477 0-16.962 3.026-22.457 9.078-5.495 6.053-8.243 14.335-8.243 24.847 0 6.85 1.234 12.802 3.704 17.858 2.468 5.057 6.052 8.98 10.75 11.766 4.698 2.787 10.154 4.18 16.366 4.18 6.21 0 11.646-.935 16.305-2.807 4.66-1.87 8.52-4.957 11.587-9.258 3.066-4.3 4.798-9.635 5.196-16.007h1.075L507.3 72.784c-3.104 4.778-7.604 8.54-13.497 11.288-5.893 2.747-12.344 4.12-19.35 4.12-12.186-.078-21.802-3.463-28.85-10.152zM598.803 85.326h.956v1.195H572.88v-1.194h1.075c1.672 0 2.926-.537 3.763-1.612.836-1.075 1.254-2.09 1.254-3.046s-.16-1.912-.478-2.867l-7.645-20.307H538.6l-8.003 20.427c-.32.956-.478 1.892-.478 2.807 0 .917.418 1.912 1.254 2.987.838 1.075 2.092 1.612 3.764 1.612h1.075v1.195H512.2v-1.194h1.074c1.99 0 3.942-.636 5.853-1.91 1.912-1.275 3.465-3.146 4.66-5.615l26.996-64.266c2.946-6.45 4.42-10.55 4.42-12.303h1.075L588.29 77.8c1.116 2.47 2.63 4.34 4.54 5.615 1.912 1.275 3.902 1.91 5.973 1.91zm-58.77-31.416h29.385l-14.335-38.345-15.05 38.345z"/><g><path d="M41.204 108.274l2.82-79.384h6.963l2.536 71.403c-4.542 2.577-8.68 5.264-12.32 7.98zM63.122 95.3l3.003-66.41h7.43l2.75 60.823c-2.07.756-4.17 1.586-6.282 2.472-2.357.99-4.655 2.02-6.9 3.114zM86.748 86.248L89.64 28.89h6.497l2.746 54.47c-3.86.702-7.928 1.664-12.135 2.888zM121.57 6.13c0-1.78-1.445-3.226-3.225-3.226H19.43c-1.78 0-3.224 1.445-3.224 3.225v6.45c0 1.78 1.445 3.225 3.225 3.225h98.915c1.78 0 3.225-1.445 3.225-3.225V6.13z"/><path d="M119.03 2.903c2.703 0 15.102 7.16 16.452 9.498 1.35 2.34 1.35 16.658 0 18.997-1.35 2.34-13.75 9.5-16.45 9.5-2.702 0-15.102-7.16-16.452-9.5-1.35-2.34-1.35-16.656 0-18.996 1.35-2.338 13.75-9.497 16.45-9.497zM18.915 2.903c2.7 0 15.1 7.16 16.45 9.498 1.35 2.34 1.35 16.658 0 18.997-1.35 2.34-13.75 9.5-16.45 9.5-2.702 0-15.102-7.16-16.452-9.5-1.35-2.34-1.35-16.656 0-18.996 1.35-2.338 13.75-9.497 16.452-9.497z"/></g></g></svg>