<svg id="Ebene_1" data-name="Ebene 1" xmlns="http://www.w3.org/2000/svg" viewBox="0 0 130.44 40"><defs><style>.cls-1,.cls-4{fill:none;}.cls-1{stroke:#e10000;stroke-miterlimit:10;stroke-width:1.5px;}.cls-2{fill:#fff;}.cls-3{fill:#e10000;}</style></defs><title>Logo</title><rect class="cls-1" x="29.03" y="1.25" width="100.66" height="37.5" rx="6" ry="6"/><rect class="cls-2" x="2.35" width="39" height="40" rx="6" ry="6"/><rect class="cls-3" y="0.5" width="39" height="39" rx="6" ry="6"/><path class="cls-3" d="M53.16,10.58l7,17.35H58.57L56.2,22.22H49.7l-2.35,5.71H45.67l7.13-17.35h0.37ZM53,14.26l-2.58,6.28h5.16Z" transform="translate(-1.19 -1.13)"/><path class="cls-3" d="M84.56,16.77V27.93H83.14V26a6.15,6.15,0,0,1-2,1.65,5.66,5.66,0,0,1-6.5-1.16,5.76,5.76,0,0,1-1.68-4.18,5.65,5.65,0,0,1,1.69-4.12,5.52,5.52,0,0,1,4.07-1.71,5.27,5.27,0,0,1,2.49.58,5.66,5.66,0,0,1,2,1.75V16.77h1.42Zm-5.74,1.1A4.33,4.33,0,0,0,75,20.11a4.52,4.52,0,0,0,0,4.51,4.4,4.4,0,0,0,1.62,1.67,4.24,4.24,0,0,0,2.19.6A4.48,4.48,0,0,0,81,26.3a4.15,4.15,0,0,0,1.62-1.61,4.59,4.59,0,0,0,.57-2.28A4.44,4.44,0,0,0,82,19.17,4.22,4.22,0,0,0,78.82,17.87Z" transform="translate(-1.19 -1.13)"/><path class="cls-3" d="M99.34,12.63h1.44v4.14h2.28V18h-2.28v9.92H99.34V18h-2V16.77h2V12.63Z" transform="translate(-1.19 -1.13)"/><path class="cls-3" d="M103.92,12.18a1.14,1.14,0,0,1,.84.35,1.15,1.15,0,0,1,.35.84A1.18,1.18,0,1,1,103.92,12.18Zm-0.71,4.59h1.44V27.93H103.2V16.77Z" transform="translate(-1.19 -1.13)"/><path class="cls-3" d="M105,16.77h1.53l3.74,8.13,3.7-8.13h1.54L110.4,27.93h-0.27Z" transform="translate(-1.19 -1.13)"/><path class="cls-3" d="M125,24.22l1.21,0.64a6.6,6.6,0,0,1-1.37,1.89,5.47,5.47,0,0,1-1.75,1.09,6.13,6.13,0,0,1-2.21.37,5.33,5.33,0,0,1-4.27-1.79,6,6,0,0,1-1.54-4,6,6,0,0,1,1.3-3.78,5.33,5.33,0,0,1,4.42-2.11,5.5,5.5,0,0,1,4.56,2.16,6,6,0,0,1,1.23,3.81h-10a4.54,4.54,0,0,0,1.24,3.19,4,4,0,0,0,3,1.24,4.77,4.77,0,0,0,1.66-.3,4.35,4.35,0,0,0,1.37-.79A6.68,6.68,0,0,0,125,24.22Zm0-3a4.76,4.76,0,0,0-.84-1.84,4,4,0,0,0-1.45-1.11,4.45,4.45,0,0,0-1.9-.42A4.09,4.09,0,0,0,118,18.91a4.77,4.77,0,0,0-1.3,2.31H125Z" transform="translate(-1.19 -1.13)"/><path class="cls-2" d="M13.57,17.76v9.56H12.36V25.68a5.27,5.27,0,0,1-1.74,1.42,4.69,4.69,0,0,1-2.1.47A4.67,4.67,0,0,1,5.05,26.1a4.94,4.94,0,0,1-1.44-3.58A4.85,4.85,0,0,1,5.07,19a4.73,4.73,0,0,1,3.49-1.47,4.51,4.51,0,0,1,2.13.5,4.85,4.85,0,0,1,1.67,1.5V17.76h1.21Zm-4.92.94a3.71,3.71,0,0,0-3.28,1.92,3.87,3.87,0,0,0,0,3.86,3.77,3.77,0,0,0,1.39,1.44,3.63,3.63,0,0,0,1.87.51,3.84,3.84,0,0,0,1.91-.51A3.56,3.56,0,0,0,12,24.55a3.93,3.93,0,0,0,.49-2,3.81,3.81,0,0,0-1.09-2.77A3.62,3.62,0,0,0,8.66,18.7Z" transform="translate(-1.19 -1.13)"/><path class="cls-2" d="M20.91,27.2a4.79,4.79,0,1,1,4.79-4.79A4.8,4.8,0,0,1,20.91,27.2Zm0-8.58a3.79,3.79,0,1,0,3.79,3.79A3.8,3.8,0,0,0,20.91,18.61Z" transform="translate(-1.19 -1.13)"/><rect class="cls-2" x="14.83" y="16.63" width="1" height="15.5"/><path class="cls-4" d="M28.36,17.75v0Z" transform="translate(-1.19 -1.13)"/><path class="cls-3" d="M66,28.19h0a5.84,5.84,0,0,1,0-11.69h0A5.84,5.84,0,0,1,66,28.19Zm0-10.39a4.54,4.54,0,0,0,0,9.09h0a4.54,4.54,0,0,0,0-9.09h0Z" transform="translate(-1.19 -1.13)"/><rect class="cls-3" x="61.87" y="17.86" width="18.75" height="1.3" transform="translate(51.39 88.6) rotate(-89.87)"/><path class="cls-3" d="M92.41,28.13h0a5.84,5.84,0,0,1,0-11.69h0a5.84,5.84,0,0,1,5.83,5.85h0A5.84,5.84,0,0,1,92.41,28.13Zm0-10.39a4.54,4.54,0,0,0,0,9.09h0a4.54,4.54,0,0,0,0-9.09h0Z" transform="translate(-1.19 -1.13)"/><rect class="cls-3" x="78.54" y="24.65" width="17.1" height="1.3" transform="translate(60.41 111.21) rotate(-89.87)"/><path class="cls-2" d="M33,27.27a4.79,4.79,0,1,1,4.79-4.79A4.8,4.8,0,0,1,33,27.27Zm0-8.58a3.79,3.79,0,1,0,3.79,3.79A3.8,3.8,0,0,0,33,18.68Z" transform="translate(-1.19 -1.13)"/><rect class="cls-2" x="26.95" y="16.7" width="1" height="15.5"/></svg>