<svg width="37" height="68" viewBox="0 0 37 68" xmlns="http://www.w3.org/2000/svg"><title>Untitled 2</title><g fill="none" fill-rule="evenodd"><path d="M37 37.63c-1.373.615-2.818 1.03-4.372 1.21 1.59-.94 2.782-2.438 3.342-4.21-1.445.87-3.09 1.5-4.787 1.844-1.428-1.445-3.397-2.385-5.583-2.385-4.19 0-7.57 3.378-7.57 7.57 0 .595.036 1.21.163 1.752-6.287-.344-11.852-3.198-15.628-7.787-.632 1.12-1.03 2.276-1.03 3.686 0 2.602 1.338 4.915 3.397 6.288-1.246-.036-2.403-.38-3.432-.94v.09c0 3.686 2.62 6.757 6.088 7.444-.65.18-1.337.27-2.024.27-.47 0-.94-.053-1.41-.144.94 3 3.777 5.24 7.065 5.276-2.566 2.06-5.872 3.595-9.413 3.595-.615 0-1.21-.037-1.807-.127 3.342 2.15 7.37 3.09 11.653 3.09 13.947 0 21.57-11.564 21.57-21.59v-.994c1.465-1.067 2.747-2.386 3.777-3.94z" fill="#DCF1F3"/><path d="M37 3.63c-1.373.615-2.818 1.03-4.372 1.21 1.59-.94 2.782-2.438 3.342-4.21-1.445.87-3.09 1.5-4.787 1.844C29.755 1.03 27.786.09 25.6.09c-4.19 0-7.57 3.378-7.57 7.57 0 .595.036 1.21.163 1.752C11.906 9.068 6.34 6.214 2.565 1.625c-.632 1.12-1.03 2.276-1.03 3.686 0 2.602 1.338 4.915 3.397 6.288-1.246-.036-2.403-.38-3.432-.94v.09c0 3.686 2.62 6.757 6.088 7.444-.65.18-1.337.27-2.024.27-.47 0-.94-.053-1.41-.144.94 3 3.777 5.24 7.065 5.276-2.566 2.06-5.872 3.595-9.413 3.595-.615 0-1.21-.037-1.807-.128 3.342 2.15 7.37 3.09 11.653 3.09 13.947 0 21.57-11.563 21.57-21.59V7.57C34.69 6.502 35.97 5.183 37 3.63z" fill="#FFF"/></g></svg>