<svg width="42" height="77" viewBox="0 0 42 77" xmlns="http://www.w3.org/2000/svg"><title>Untitled 2</title><g fill="none" fill-rule="evenodd"><path d="M23.625 29h5.25L21 36.875 13.125 29h5.25V15.875h5.25V29zM31.5 8c2.816-.027 5.243.704 7.28 2.194s3.11 3.822 3.22 6.993c-.11 3.063-1.183 5.36-3.22 6.89-2.037 1.532-4.464 2.298-7.28 2.298h-5.25V22.97h5.25c.82.11 2.153-.163 4-.82 1.845-.656 2.877-2.31 3.096-4.962-.164-2.516-1.08-4.13-2.748-4.84-1.668-.71-3.118-1.026-4.348-.944h-3.404V8.246c-.028-.492-.622-1.36-1.784-2.604-1.163-1.245-3.37-1.95-6.625-2.113-2.242.054-4.183.78-5.824 2.173-1.64 1.395-2.502 3.035-2.584 4.922v3.404H7.874c-2.078.163-3.363.854-3.855 2.07-.493 1.217-.698 2.017-.616 2.4-.082.52.13 1.36.636 2.522.506 1.163 1.784 1.812 3.835 1.95h7.875v3.403H7.875c-2.625-.082-4.594-.896-5.906-2.44C.655 22.39 0 20.592 0 18.54c0-2.05.663-3.86 1.99-5.434 1.325-1.572 3.287-2.4 5.885-2.48.082-2.817 1.25-5.244 3.507-7.28 2.256-2.038 5.024-3.112 8.306-3.22 4.62.245 7.772 1.414 9.454 3.506C30.822 5.724 31.61 7.18 31.5 8z" fill="#379199"/><path d="M23.625 69h5.25L21 76.875 13.125 69h5.25V55.875h5.25V69zM31.5 48c2.816-.027 5.243.704 7.28 2.194s3.11 3.822 3.22 6.993c-.11 3.063-1.183 5.36-3.22 6.89-2.037 1.532-4.464 2.298-7.28 2.298h-5.25V62.97h5.25c.82.11 2.153-.163 4-.82 1.845-.656 2.877-2.31 3.096-4.962-.164-2.516-1.08-4.13-2.748-4.84-1.668-.71-3.118-1.026-4.348-.944h-3.404v-3.158c-.028-.492-.622-1.36-1.784-2.604-1.163-1.245-3.37-1.95-6.625-2.113-2.242.054-4.183.78-5.824 2.173-1.64 1.395-2.502 3.035-2.584 4.922v3.404H7.874c-2.078.163-3.363.854-3.855 2.07-.493 1.217-.698 2.017-.616 2.4-.082.52.13 1.36.636 2.522.506 1.163 1.784 1.812 3.835 1.95h7.875v3.403H7.875c-2.625-.082-4.594-.896-5.906-2.44C.655 62.39 0 60.592 0 58.54c0-2.05.663-3.86 1.99-5.434 1.325-1.572 3.287-2.4 5.885-2.48.082-2.817 1.25-5.244 3.507-7.28 2.256-2.038 5.024-3.112 8.306-3.22 4.62.245 7.772 1.414 9.454 3.506C30.822 45.724 31.61 47.18 31.5 48z" fill="#6CC2CA"/></g></svg>