<svg width="32" height="65" viewBox="0 0 32 65" xmlns="http://www.w3.org/2000/svg"><title>Untitled 2</title><g fill="none" fill-rule="evenodd"><path d="M16 .625c-4.258.098-7.798 1.558-10.62 4.38C2.558 7.827 1.098 11.367 1 15.625c.06 3.36 1.025 6.31 2.9 8.848 1.875 2.54 4.327 4.336 7.354 5.39.37.06.635.005.79-.16.157-.167.235-.357.235-.572l-.03-2.782c-1.836.273-3.105.166-3.81-.323-.702-.488-1.112-.976-1.23-1.464-.097-.253-.292-.615-.585-1.083-.293-.47-.605-.81-.938-1.026-.312-.155-.54-.35-.688-.585-.147-.234.072-.36.658-.38.586.02 1.08.214 1.48.585.4.37.67.684.805.938.723 1.074 1.514 1.616 2.373 1.626.86.01 1.524-.113 1.993-.366.077-.49.2-.9.365-1.23.166-.333.366-.597.6-.792-1.757-.117-3.32-.68-4.687-1.684-1.367-1.006-2.09-2.916-2.168-5.728.02-.82.16-1.563.425-2.227.263-.664.64-1.26 1.128-1.787-.118-.195-.215-.644-.293-1.347-.078-.703.068-1.582.44-2.637 0-.06.33-.044.995.044.664.088 1.71.59 3.135 1.51 1.21-.333 2.46-.5 3.75-.5s2.54.167 3.75.5c1.426-.92 2.47-1.422 3.135-1.51.664-.088.996-.103.996-.044.372 1.055.518 1.934.44 2.637-.078.703-.175 1.152-.293 1.347.49.528.865 1.123 1.128 1.787.264.664.406 1.407.425 2.227-.078 2.812-.806 4.722-2.183 5.728-1.376 1.005-2.934 1.567-4.672 1.684.273.234.507.58.703 1.04.195.46.302 1.04.322 1.743l-.03 4.1c0 .216.08.406.235.572.156.166.42.22.79.16 3.028-1.053 5.48-2.85 7.355-5.39 1.875-2.538 2.84-5.488 2.9-8.847-.098-4.258-1.558-7.798-4.38-10.62C23.798 2.183 20.258.723 16 .625z" fill="#FFF"/><path d="M16 34.625c-4.258.098-7.798 1.558-10.62 4.38-2.822 2.822-4.282 6.362-4.38 10.62.06 3.36 1.025 6.31 2.9 8.848 1.875 2.54 4.327 4.336 7.354 5.39.37.06.635.005.79-.16.157-.167.235-.357.235-.572l-.03-2.782c-1.836.273-3.105.166-3.81-.323-.702-.488-1.112-.976-1.23-1.464-.097-.253-.292-.615-.585-1.083-.293-.47-.605-.81-.938-1.026-.312-.155-.54-.35-.688-.585-.147-.234.072-.36.658-.38.586.02 1.08.214 1.48.585.4.37.67.684.805.938.723 1.074 1.514 1.616 2.373 1.626.86.01 1.524-.113 1.993-.366.077-.49.2-.9.365-1.23.166-.333.366-.597.6-.792-1.757-.117-3.32-.68-4.687-1.684-1.367-1.006-2.09-2.916-2.168-5.728.02-.82.16-1.563.425-2.227.263-.664.64-1.26 1.128-1.787-.118-.195-.215-.644-.293-1.347-.078-.703.068-1.582.44-2.637 0-.06.33-.044.995.044.664.088 1.71.59 3.135 1.51 1.21-.333 2.46-.5 3.75-.5s2.54.167 3.75.5c1.426-.92 2.47-1.422 3.135-1.51.664-.088.996-.103.996-.044.372 1.055.518 1.934.44 2.637-.078.703-.175 1.152-.293 1.347.49.528.865 1.123 1.128 1.787.264.664.406 1.407.425 2.227-.078 2.812-.806 4.722-2.183 5.728-1.376 1.005-2.934 1.567-4.672 1.684.273.234.507.58.703 1.04.195.46.302 1.04.322 1.743l-.03 4.1c0 .216.08.406.235.572.156.166.42.22.79.16 3.028-1.053 5.48-2.85 7.355-5.39 1.875-2.538 2.84-5.488 2.9-8.847-.098-4.258-1.558-7.798-4.38-10.62-2.822-2.822-6.362-4.282-10.62-4.38z" fill="#DCF1F3"/></g></svg>