<?xml version="1.0" encoding="UTF-8" standalone="no"?>
<svg width="19px" height="20px" viewBox="0 0 19 20" version="1.1" xmlns="http://www.w3.org/2000/svg" xmlns:xlink="http://www.w3.org/1999/xlink" xmlns:sketch="http://www.bohemiancoding.com/sketch/ns">
    <!-- Generator: Sketch 3.5.1 (25234) - http://www.bohemiancoding.com/sketch -->
    <title>Untitled 2</title>
    <desc>Created with Sketch.</desc>
    <defs></defs>
    <g id="Page-1" stroke="none" stroke-width="1" fill="none" fill-rule="evenodd" sketch:type="MSPage">
        <path d="M11.2500295,0.999952793 C7.52085306,0.999952793 4.5000118,4.02079405 4.5000118,7.7499705 C4.5000118,9.08330733 4.87501279,10.3124772 5.5416812,11.3541466 L0.437501147,16.4374933 C-0.145833716,17.0208281 -0.145833716,17.979164 0.437501147,18.5624989 C0.729168579,18.8541663 1.10416956,19 1.50000393,19 C1.87500492,19 2.27083929,18.8541663 2.56250672,18.5624989 L7.64585339,13.4583188 C8.68752278,14.1249872 9.91669267,14.4999882 11.2500295,14.4999882 C14.979206,14.4999882 18.0000472,11.4791469 18.0000472,7.7499705 C18.0000472,4.02079405 14.979206,0.999952793 11.2500295,0.999952793 L11.2500295,0.999952793 Z M11.2500295,12.2499823 C8.77085634,12.2499823 6.7500177,10.2291437 6.7500177,7.7499705 C6.7500177,5.27079733 8.77085634,3.24995869 11.2500295,3.24995869 C13.7292027,3.24995869 15.7500413,5.27079733 15.7500413,7.7499705 C15.7500413,10.2291437 13.7292027,12.2499823 11.2500295,12.2499823 L11.2500295,12.2499823 Z" id="search" opacity="0.5" fill="#333333" sketch:type="MSShapeGroup"></path>
    </g>
</svg>