<?xml version="1.0" encoding="UTF-8" standalone="no"?>
<svg width="32px" height="65px" viewBox="0 0 32 65" version="1.1" xmlns="http://www.w3.org/2000/svg" xmlns:xlink="http://www.w3.org/1999/xlink" xmlns:sketch="http://www.bohemiancoding.com/sketch/ns">
    <!-- Generator: Sketch 3.5.1 (25234) - http://www.bohemiancoding.com/sketch -->
    <title>Untitled 2</title>
    <desc>Created with Sketch.</desc>
    <defs></defs>
    <g id="Page-1" stroke="none" stroke-width="1" fill="none" fill-rule="evenodd" sketch:type="MSPage">
        <g id="icon-github" sketch:type="MSLayerGroup" transform="translate(1.000000, 0.000000)">
            <path d="M15,0.625 C10.7421662,0.722656738 7.20216255,2.18260308 4.37988281,5.00488281 C1.55760308,7.82716255 0.0976567383,11.3671662 0,15.625 C0.058594043,18.9843918 1.02538125,21.9335811 2.90039062,24.4726562 C4.7754,27.0117314 7.22654736,28.8085885 10.2539062,29.8632812 C10.6250019,29.9218753 10.8886711,29.8681649 11.0449219,29.7021484 C11.2011727,29.536132 11.2792969,29.3457042 11.2792969,29.1308594 L11.25,26.3476562 C9.41405332,26.6210951 8.14453477,26.5136743 7.44140625,26.0253906 C6.73827773,25.5371069 6.32812559,25.0488306 6.2109375,24.5605469 C6.11328076,24.3066394 5.91797021,23.9453148 5.625,23.4765625 C5.33202979,23.0078102 5.01953291,22.6660167 4.6875,22.4511719 C4.37499844,22.2949211 4.14550854,22.0996105 3.99902344,21.8652344 C3.85253833,21.6308582 4.0722627,21.5039063 4.65820312,21.484375 C5.24414355,21.5039063 5.73730269,21.6992169 6.13769531,22.0703125 C6.53808794,22.4414081 6.80663994,22.753905 6.94335938,23.0078125 C7.66601924,24.0820366 8.45702695,24.6240234 9.31640625,24.6337891 C10.1757855,24.6435547 10.8398414,24.5214856 11.3085938,24.2675781 C11.3867191,23.7792944 11.5087882,23.3691423 11.6748047,23.0371094 C11.8408211,22.7050765 12.0410145,22.4414072 12.2753906,22.2460938 C10.5175693,22.1289057 8.95508496,21.5673878 7.58789062,20.5615234 C6.22069629,19.555659 5.49804727,17.6464984 5.41992188,14.8339844 C5.43945322,14.0136678 5.58105337,13.2714877 5.84472656,12.6074219 C6.10839976,11.9433561 6.48437256,11.3476589 6.97265625,10.8203125 C6.85546816,10.624999 6.75781289,10.1757848 6.6796875,9.47265625 C6.60156211,8.76952773 6.74804502,7.89063027 7.11914062,6.8359375 C7.11914062,6.77734346 7.45116855,6.79199175 8.11523438,6.87988281 C8.7793002,6.96777388 9.82421162,7.47069854 11.25,8.38867188 C12.4609436,8.05663896 13.7109311,7.890625 15,7.890625 C16.2890689,7.890625 17.5390564,8.05663896 18.75,8.38867188 C20.1757884,7.47069854 21.2206998,6.96777388 21.8847656,6.87988281 C22.5488314,6.79199175 22.8808594,6.77734346 22.8808594,6.8359375 C23.251955,7.89063027 23.3984379,8.76952773 23.3203125,9.47265625 C23.2421871,10.1757848 23.1445318,10.624999 23.0273438,10.8203125 C23.5156274,11.3476589 23.8916002,11.9433561 24.1552734,12.6074219 C24.4189466,13.2714877 24.5605468,14.0136678 24.5800781,14.8339844 C24.5019527,17.6464984 23.7744209,19.555659 22.3974609,20.5615234 C21.0205009,21.5673878 19.4628993,22.1289057 17.7246094,22.2460938 C17.9980482,22.4804699 18.2324209,22.8271461 18.4277344,23.2861328 C18.6230479,23.7451195 18.7304687,24.3261684 18.75,25.0292969 L18.7207031,29.1308594 C18.7207031,29.3457042 18.7988273,29.536132 18.9550781,29.7021484 C19.1113289,29.8681649 19.3749981,29.9218753 19.7460938,29.8632812 C22.7734526,28.8085885 25.2246,27.0117314 27.0996094,24.4726562 C28.9746187,21.9335811 29.941406,18.9843918 30,15.625 C29.9023433,11.3671662 28.4423969,7.82716255 25.6201172,5.00488281 C22.7978375,2.18260308 19.2578338,0.722656738 15,0.625 L15,0.625 Z" id="" fill="#FFFFFF" sketch:type="MSShapeGroup"></path>
            <path d="M15,34.625 C10.7421662,34.7226567 7.20216255,36.1826031 4.37988281,39.0048828 C1.55760308,41.8271625 0.0976567383,45.3671662 0,49.625 C0.058594043,52.9843918 1.02538125,55.9335811 2.90039062,58.4726562 C4.7754,61.0117314 7.22654736,62.8085885 10.2539062,63.8632812 C10.6250019,63.9218753 10.8886711,63.8681649 11.0449219,63.7021484 C11.2011727,63.536132 11.2792969,63.3457042 11.2792969,63.1308594 L11.25,60.3476562 C9.41405332,60.6210951 8.14453477,60.5136743 7.44140625,60.0253906 C6.73827773,59.5371069 6.32812559,59.0488306 6.2109375,58.5605469 C6.11328076,58.3066394 5.91797021,57.9453148 5.625,57.4765625 C5.33202979,57.0078102 5.01953291,56.6660167 4.6875,56.4511719 C4.37499844,56.2949211 4.14550854,56.0996105 3.99902344,55.8652344 C3.85253833,55.6308582 4.0722627,55.5039063 4.65820312,55.484375 C5.24414355,55.5039063 5.73730269,55.6992169 6.13769531,56.0703125 C6.53808794,56.4414081 6.80663994,56.753905 6.94335938,57.0078125 C7.66601924,58.0820366 8.45702695,58.6240234 9.31640625,58.6337891 C10.1757855,58.6435547 10.8398414,58.5214856 11.3085938,58.2675781 C11.3867191,57.7792944 11.5087882,57.3691423 11.6748047,57.0371094 C11.8408211,56.7050765 12.0410145,56.4414072 12.2753906,56.2460938 C10.5175693,56.1289057 8.95508496,55.5673878 7.58789062,54.5615234 C6.22069629,53.555659 5.49804727,51.6464984 5.41992188,48.8339844 C5.43945322,48.0136678 5.58105337,47.2714877 5.84472656,46.6074219 C6.10839976,45.9433561 6.48437256,45.3476589 6.97265625,44.8203125 C6.85546816,44.624999 6.75781289,44.1757848 6.6796875,43.4726562 C6.60156211,42.7695277 6.74804502,41.8906303 7.11914062,40.8359375 C7.11914062,40.7773435 7.45116855,40.7919917 8.11523438,40.8798828 C8.7793002,40.9677739 9.82421162,41.4706985 11.25,42.3886719 C12.4609436,42.056639 13.7109311,41.890625 15,41.890625 C16.2890689,41.890625 17.5390564,42.056639 18.75,42.3886719 C20.1757884,41.4706985 21.2206998,40.9677739 21.8847656,40.8798828 C22.5488314,40.7919917 22.8808594,40.7773435 22.8808594,40.8359375 C23.251955,41.8906303 23.3984379,42.7695277 23.3203125,43.4726562 C23.2421871,44.1757848 23.1445318,44.624999 23.0273438,44.8203125 C23.5156274,45.3476589 23.8916002,45.9433561 24.1552734,46.6074219 C24.4189466,47.2714877 24.5605468,48.0136678 24.5800781,48.8339844 C24.5019527,51.6464984 23.7744209,53.555659 22.3974609,54.5615234 C21.0205009,55.5673878 19.4628993,56.1289057 17.7246094,56.2460938 C17.9980482,56.4804699 18.2324209,56.8271461 18.4277344,57.2861328 C18.6230479,57.7451195 18.7304687,58.3261684 18.75,59.0292969 L18.7207031,63.1308594 C18.7207031,63.3457042 18.7988273,63.536132 18.9550781,63.7021484 C19.1113289,63.8681649 19.3749981,63.9218753 19.7460938,63.8632812 C22.7734526,62.8085885 25.2246,61.0117314 27.0996094,58.4726562 C28.9746187,55.9335811 29.941406,52.9843918 30,49.625 C29.9023433,45.3671662 28.4423969,41.8271625 25.6201172,39.0048828 C22.7978375,36.1826031 19.2578338,34.7226567 15,34.625 L15,34.625 Z" id="" fill="#DCF1F3" sketch:type="MSShapeGroup"></path>
        </g>
    </g>
</svg>