<svg width="384" height="104" viewBox="0 0 384 104" xmlns="http://www.w3.org/2000/svg"><title>Untitled 2</title><g fill="#FFC398" fill-rule="evenodd"><path d="M210.844 91.96c.846 2.15.7 4.12-.44 5.91s-2.88 2.75-5.224 2.88h-74.61c-2.343-.13-4.085-1.09-5.224-2.88-1.14-1.79-1.286-3.76-.44-5.91L146 44.5v-25h-6.25v-6.25H196v6.25h-6.25v25l21.094 47.46zm-19.53-28.71L183.5 44.5v-25h-31.25v25l-7.813 18.75h46.875zM171 50.75h6.25V57H171v-6.25zm-6.25-6.25h-6.25v-6.25h6.25v6.25zm0-18.75H171V32h-6.25v-6.25zm0-18.75h-6.25V.75h6.25V7zM327.438 67.813h32.25v8.062h-32.25v-8.063zm-30.235 2.015l18.14-18.14-18.14-18.14 6.047-6.048 24.188 24.188-24.188 24.187-6.047-6.047zm86.672-58.453V92c-.084 2.268-.882 4.157-2.394 5.67-1.51 1.51-3.4 2.31-5.668 2.392h-96.75c-2.267-.083-4.157-.88-5.668-2.393-1.512-1.513-2.31-3.402-2.394-5.67V11.375c.084-2.268.882-4.157 2.394-5.67 1.51-1.51 3.4-2.31 5.668-2.393h96.75c2.268.084 4.158.882 5.67 2.394 1.51 1.512 2.31 3.4 2.393 5.67zm-8.063 0h-96.75V92h96.75V11.375zM51.828 30.89l9.844 23.635-23.07 46.194H24.04L.97 54.524 10.81 30.89V17.047h8.204V32.53L9.992 54.217 27.22 88.67V62.01c-1.47-.752-2.66-1.854-3.564-3.307-.906-1.452-1.36-3.033-1.36-4.742 0-2.494.88-4.622 2.64-6.382 1.762-1.76 3.89-2.64 6.384-2.64 2.495 0 4.623.88 6.383 2.64 1.76 1.76 2.64 3.888 2.64 6.383 0 1.71-.452 3.29-1.358 4.743-.906 1.453-2.093 2.555-3.563 3.307v26.712l17.226-34.505-9.023-21.687V17.047h8.203V30.89zM58.39 2.28v8.204H4.25V2.28h54.14z"/></g></svg>