<?xml version="1.0" encoding="UTF-8" standalone="no"?>
<svg width="601px" height="111px" viewBox="0 0 601 111" version="1.1" xmlns="http://www.w3.org/2000/svg" xmlns:xlink="http://www.w3.org/1999/xlink" xmlns:sketch="http://www.bohemiancoding.com/sketch/ns">
    <!-- Generator: Sketch 3.5.1 (25234) - http://www.bohemiancoding.com/sketch -->
    <title>Untitled 2</title>
    <desc>Created with Sketch.</desc>
    <defs></defs>
    <g id="Page-1" stroke="none" stroke-width="1" fill="none" fill-rule="evenodd" sketch:type="MSPage">
        <g id="logo-seneca" sketch:type="MSLayerGroup" transform="translate(0.375000, 0.250000)" fill="#000000">
            <g id="lettermark" transform="translate(154.773271, 0.192073)" sketch:type="MSShapeGroup">
                <path d="M0.958431722,81.1811267 C0.719523718,80.0668448 0.600069715,77.9166728 0.600069715,74.7306105 C0.600069715,71.5454816 1.19733973,68.1606404 2.39187975,64.5770203 L3.46696577,64.5770203 C3.38670761,65.4533274 3.34751177,66.3296345 3.34751177,67.2050084 C3.34751177,72.0634266 4.82015564,76.1043316 7.76730986,79.3295896 C10.7135308,82.5548477 14.6153838,84.1674767 19.4738021,84.1674767 C24.4908702,84.1674767 28.6120333,82.6547038 31.8372913,79.6282246 C35.0625494,76.6026787 36.6751784,72.7997486 36.6751784,68.2203674 C36.6751784,63.6419195 35.1222764,59.9183142 32.0164723,57.0514182 L9.08130389,35.7886058 C4.7809598,31.8074278 2.63078776,26.9891387 2.63078776,21.3346715 C2.63078776,15.6811375 4.52152064,10.8432504 8.30485287,6.82101018 C12.0872519,2.79970318 17.204176,0.788583063 23.6546922,0.788583063 C26.6802381,0.788583063 30.1052083,1.18707415 33.9277364,1.98312309 L38.5864425,1.98312309 L38.5864425,16.6759654 L37.5113565,16.6759654 C37.5113565,12.9336955 36.2169604,9.9473454 33.6291014,7.7169152 C31.0403092,5.48741824 27.7161283,4.37220313 23.6546922,4.37220313 C19.5932561,4.37220313 16.188817,5.72632624 13.441375,8.43363922 C10.6939329,11.1418854 9.32021189,14.5257933 9.32021189,18.5872294 C9.32021189,22.6486655 10.9123098,26.1529606 14.098372,29.0991816 L37.6308105,50.8398101 C41.6119884,54.5036883 43.6035106,59.5207564 43.6035106,65.8910144 C43.6035106,72.2622056 41.5727925,77.4985838 37.5113565,81.5992157 C33.4499204,85.7007808 28.0343612,87.7510968 21.2656121,87.7510968 C17.761317,87.7510968 14.038645,87.2135538 10.0966629,86.1384678 C6.15468083,85.0633818 3.10860377,83.4115569 0.958431722,81.1811267 L0.958431722,81.1811267 Z" id="Shape"></path>
                <path d="M58.6547149,84.8842007 C60.5659789,84.8842007 62.1786079,84.2673328 63.492602,83.0326637 C64.806596,81.7989278 65.5027889,80.3057528 65.583047,78.5531386 L65.583047,21.8124875 C65.583047,20.0608065 64.9055188,18.5872294 63.552329,17.3926894 C62.1982059,16.1981494 60.5659789,15.6008794 58.6547149,15.6008794 L56.9823588,15.6008794 L56.9823588,14.4063393 L91.8629275,14.4063393 C95.1273815,14.4063393 97.9942775,14.1674313 100.463616,13.6896153 C102.932021,13.2117993 104.525052,12.8142415 105.241776,12.4950753 L105.241776,26.1128316 L103.927782,25.9933776 L103.927782,24.2015675 C103.927782,22.5292115 103.369708,21.0957635 102.255426,19.9012234 C101.140211,18.7066834 99.7067626,18.1094134 97.9550817,18.1094134 L73.1086492,18.1094134 L73.1086492,48.45073 L93.5352836,48.45073 C95.1273815,48.45073 96.3424526,47.972914 97.1786307,47.017282 C98.0148087,46.06165 98.4328977,44.8671099 98.4328977,43.4336619 L98.4328977,41.8807599 L99.7468917,41.8807599 L99.7468917,58.6043202 L98.4328977,58.6043202 L98.4328977,57.0514182 C98.4328977,54.8219212 97.5967197,53.3091483 95.9243636,52.5121661 C95.2869645,52.2732581 94.6103696,52.1146082 93.8936456,52.0343501 L73.1086492,52.0343501 L73.1086492,82.3756667 L91.8629275,82.3756667 C95.5258725,82.3756667 98.6120787,81.7392008 101.120613,80.4644027 C103.629147,79.1905377 105.540411,77.6777648 106.854405,75.9251506 C108.168399,74.1734696 109.501991,71.8637145 110.856114,68.9968184 L112.050654,68.9968184 L105.480684,86.0787408 L56.9823588,86.0787408 L56.9823588,84.8842007 L58.6547149,84.8842007 L58.6547149,84.8842007 Z" id="Shape"></path>
                <path d="M202.477334,15.6008794 C200.72472,15.6008794 199.211947,16.1785514 197.938082,17.3329624 C196.663283,18.4883066 195.986689,19.9012234 195.907364,21.5735795 L195.907364,72.4609845 C195.907364,77.0804947 196.185467,81.4601638 196.743542,85.6009248 L196.98245,87.7510968 L195.907364,87.7510968 L133.791282,28.8602736 L133.791282,78.6725926 C133.791282,80.4252068 134.427748,81.8978507 135.702546,83.0923907 C136.976411,84.2869307 138.529313,84.8842007 140.361253,84.8842007 L142.391971,84.8842007 L142.391971,86.0787408 L119.815164,86.0787408 L119.815164,84.8842007 L121.845882,84.8842007 C123.676888,84.8842007 125.22979,84.2869307 126.504588,83.0923907 C127.778453,81.8978507 128.415852,80.4252068 128.415852,78.6725926 L128.415852,27.5462796 C128.415852,22.6887946 128.136815,18.3483214 127.579674,14.5257933 L127.340766,12.6145293 L128.65476,12.7339833 L190.651388,71.1469905 L190.651388,21.5735795 C190.491804,19.9012234 189.77508,18.4883066 188.501215,17.3329624 C187.226417,16.1785514 185.713644,15.6008794 183.961963,15.6008794 L181.931245,15.6008794 L181.931245,14.4063393 L204.508052,14.4063393 L204.508052,15.6008794 L202.477334,15.6008794 L202.477334,15.6008794 Z" id="Shape"></path>
                <path d="M216.931268,84.8842007 C218.842532,84.8842007 220.455161,84.2673328 221.769155,83.0326637 C223.083149,81.7989278 223.779342,80.3057528 223.8596,78.5531386 L223.8596,21.8124875 C223.8596,20.0608065 223.182072,18.5872294 221.828882,17.3926894 C220.474759,16.1981494 218.842532,15.6008794 216.931268,15.6008794 L215.258912,15.6008794 L215.258912,14.4063393 L250.139481,14.4063393 C253.403935,14.4063393 256.270831,14.1674313 258.740169,13.6896153 C261.208574,13.2117993 262.801605,12.8142415 263.518329,12.4950753 L263.518329,26.1128316 L262.204335,25.9933776 L262.204335,24.2015675 C262.204335,22.5292115 261.646261,21.0957635 260.531979,19.9012234 C259.416764,18.7066834 257.983316,18.1094134 256.231635,18.1094134 L231.385202,18.1094134 L231.385202,48.45073 L251.811837,48.45073 C253.403935,48.45073 254.619006,47.972914 255.455184,47.017282 C256.291362,46.06165 256.709451,44.8671099 256.709451,43.4336619 L256.709451,41.8807599 L258.023445,41.8807599 L258.023445,58.6043202 L256.709451,58.6043202 L256.709451,57.0514182 C256.709451,54.8219212 255.873273,53.3091483 254.200917,52.5121661 C253.563518,52.2732581 252.886923,52.1146082 252.170199,52.0343501 L231.385202,52.0343501 L231.385202,82.3756667 L250.139481,82.3756667 C253.802426,82.3756667 256.888632,81.7392008 259.397166,80.4644027 C261.9057,79.1905377 263.816964,77.6777648 265.130958,75.9251506 C266.444952,74.1734696 267.778544,71.8637145 269.132667,68.9968184 L270.327207,68.9968184 L263.757237,86.0787408 L215.258912,86.0787408 L215.258912,84.8842007 L216.931268,84.8842007 L216.931268,84.8842007 Z" id="Shape"></path>
                <path d="M290.455207,77.5975066 C283.40742,70.9080825 279.883527,61.7698513 279.883527,50.1828131 C279.883527,38.5957748 283.40742,29.4575436 290.455207,22.7681195 C297.502993,16.0786954 307.11904,12.7339833 319.303348,12.7339833 C324.240158,12.7339833 329.21803,13.3713824 334.235098,14.6452473 C339.252167,15.9200455 343.591706,17.6717265 347.255585,19.9012234 L349.883573,36.8636918 L348.808487,36.8636918 C345.383516,23.1666106 335.508963,16.3176034 319.183894,16.3176034 C309.706899,16.3176034 302.221426,19.3440825 296.726542,25.3961076 C291.231658,31.4490658 288.484215,39.7305878 288.484215,50.2425401 C288.484215,57.0915473 289.717951,63.0446495 292.18729,68.1009134 C294.655695,73.1581106 298.239315,77.0804947 302.93815,79.8671326 C307.636052,82.6547038 313.09174,84.0480227 319.303348,84.0480227 C325.514956,84.0480227 330.950113,83.1129219 335.608819,81.2408537 C340.267526,79.3697187 344.129249,76.2835126 347.195858,71.9831685 C350.261533,67.6828244 351.993616,62.3475234 352.392107,55.9763322 L353.467193,55.9763322 L352.153199,72.3415305 C349.047395,77.1196906 344.547338,80.8824917 338.654896,83.6299337 C332.761521,86.3773758 326.311005,87.7510968 319.303348,87.7510968 C307.11904,87.6717719 297.502993,84.2869307 290.455207,77.5975066 L290.455207,77.5975066 Z" id="Shape"></path>
                <path d="M443.654965,84.8842007 L444.610597,84.8842007 L444.610597,86.0787408 L417.733446,86.0787408 L417.733446,84.8842007 L418.808532,84.8842007 C420.480888,84.8842007 421.735155,84.3466577 422.571333,83.2715717 C423.407511,82.1964857 423.8256,81.1811267 423.8256,80.2254947 C423.8256,79.2698626 423.666017,78.3142306 423.347784,77.3585986 L415.702728,57.0514182 L383.450147,57.0514182 L375.446729,77.4780526 C375.127563,78.4336846 374.968913,79.3697187 374.968913,80.2852217 C374.968913,81.2016578 375.387002,82.1964857 376.22318,83.2715717 C377.059358,84.3466577 378.313625,84.8842007 379.985981,84.8842007 L381.061067,84.8842007 L381.061067,86.0787408 L357.050813,86.0787408 L357.050813,84.8842007 L358.125899,84.8842007 C360.116488,84.8842007 362.067881,84.2477349 363.979145,82.9729367 C365.890409,81.6990718 367.443311,79.8279368 368.637851,77.3585986 L395.634456,13.0923453 C398.580677,6.64182918 400.054254,2.54119725 400.054254,0.788583063 L401.12934,0.788583063 L433.143012,77.3585986 C434.257294,79.8279368 435.771,81.6990718 437.682264,82.9729367 C439.593529,84.2477349 441.584117,84.8842007 443.654965,84.8842007 L443.654965,84.8842007 Z M384.883595,53.4677981 L414.26928,53.4677981 L399.9348,15.1230634 L384.883595,53.4677981 L384.883595,53.4677981 Z" id="Shape"></path>
            </g>
            <g id="logomark" transform="translate(0.037264, 2.091521)" sketch:type="MSShapeGroup">
                <g id="Group" transform="translate(40.578329, 26.452506)">
                    <path d="M0.212953207,79.4797917 L3.03256149,0.0956838887 L9.99622122,0.0956838887 L12.5323412,71.499024 C7.99023795,74.0763945 3.852027,76.7634663 0.212953207,79.4797917 L0.212953207,79.4797917 Z" id="Shape"></path>
                </g>
                <g id="Group" transform="translate(62.476937, 26.468133)">
                    <path d="M0.232975105,66.489236 L3.23576535,0.0801979829 L10.6660413,0.0801979829 L13.4162022,60.903472 C11.344833,61.6589677 9.24470145,62.4895531 7.1340237,63.3758175 C4.7769484,64.3657773 2.47883594,65.3955807 0.232975105,66.489236 L0.232975105,66.489236 Z" id="Shape"></path>
                </g>
                <g id="Group" transform="translate(85.978750, 26.485886)">
                    <path d="M0.356708644,57.4210905 L3.24852173,0.0628901282 L9.74556519,0.0628901282 L12.4919283,54.5333521 C8.6305887,55.2347573 4.56385866,56.1969362 0.356708644,57.4210905 L0.356708644,57.4210905 Z" id="Shape"></path>
                </g>
                <g id="Group" transform="translate(15.793809, 0.562115)">
                    <path d="M105.364256,3.22543025 C105.364256,1.44499275 103.918564,0 102.138875,0 L3.22538042,0 C1.44508257,0 0,1.44499275 0,3.22543025 L0,9.67629074 C0,11.4567282 1.44508257,12.901721 3.22538042,12.901721 L102.138875,12.901721 C103.918564,12.901721 105.364256,11.4567282 105.364256,9.67629074 L105.364256,3.22543025 L105.364256,3.22543025 Z" id="Shape"></path>
                </g>
                <g id="Group" transform="translate(100.442879, 0.561277)">
                    <path d="M18.1760885,0 C20.8773849,0 33.2765898,7.15913313 34.6268276,9.49845088 C35.9778862,11.8377686 35.9778862,26.1552141 34.6268276,28.4945318 C33.2765898,30.8338496 20.8773849,37.9929827 18.1760885,37.9929827 C15.4747921,37.9929827 3.07476642,30.8338496 1.72452863,28.4945318 C0.373470027,26.1552141 0.373470027,11.8377686 1.72452863,9.49845088 C3.07476642,7.15913313 15.4747921,0 18.1760885,0 L18.1760885,0 Z" id="Shape"></path>
                </g>
                <g id="Group" transform="translate(0.326333, 0.561277)">
                    <path d="M18.1760885,0 C20.8773849,0 33.2765898,7.15913313 34.6268276,9.49845088 C35.9778862,11.8377686 35.9778862,26.1552141 34.6268276,28.4945318 C33.2765898,30.8338496 20.8773849,37.9929827 18.1760885,37.9929827 C15.4747921,37.9929827 3.07476642,30.8338496 1.72452863,28.4945318 C0.373470027,26.1552141 0.373470027,11.8377686 1.72452863,9.49845088 C3.07476642,7.15913313 15.4747921,0 18.1760885,0 L18.1760885,0 Z" id="Shape"></path>
                </g>
            </g>
        </g>
    </g>
</svg>