<?xml version="1.0" encoding="UTF-8" standalone="no"?>
<!-- Creator: CorelDRAW X6 -->

<svg
   xmlns:dc="http://purl.org/dc/elements/1.1/"
   xmlns:cc="http://creativecommons.org/ns#"
   xmlns:rdf="http://www.w3.org/1999/02/22-rdf-syntax-ns#"
   xmlns:svg="http://www.w3.org/2000/svg"
   xmlns="http://www.w3.org/2000/svg"
   xmlns:sodipodi="http://sodipodi.sourceforge.net/DTD/sodipodi-0.dtd"
   xmlns:inkscape="http://www.inkscape.org/namespaces/inkscape"
   xml:space="preserve"
   width="82.1917mm"
   height="23.215mm"
   version="1.1"
   style="shape-rendering:geometricPrecision; text-rendering:geometricPrecision; image-rendering:optimizeQuality; fill-rule:evenodd; clip-rule:evenodd"
   viewBox="0 0 75778 21404"
   id="svg2"
   inkscape:version="0.48.4 r9939"
   sodipodi:docname="CDRoundelWithLongText-LitBg.png"><metadata
   id="metadata23"><rdf:RDF><cc:Work
       rdf:about=""><dc:format>image/svg+xml</dc:format><dc:type
         rdf:resource="http://purl.org/dc/dcmitype/StillImage" /><dc:title></dc:title></cc:Work></rdf:RDF></metadata><sodipodi:namedview
   pagecolor="#ffffff"
   bordercolor="#666666"
   borderopacity="1"
   objecttolerance="10"
   gridtolerance="10"
   guidetolerance="10"
   inkscape:pageopacity="0"
   inkscape:pageshadow="2"
   inkscape:window-width="970"
   inkscape:window-height="878"
   id="namedview21"
   showgrid="false"
   inkscape:zoom="0.98204021"
   inkscape:cx="145.61522"
   inkscape:cy="41.128937"
   inkscape:window-x="0"
   inkscape:window-y="134"
   inkscape:window-maximized="0"
   inkscape:current-layer="svg2" />
 <defs
   id="defs4">
  <style
   type="text/css"
   id="style6">
   
    .fil1 {fill:#FEFEFE}
    .fil0 {fill:black}
    .fil2 {fill:white}
   
  </style>
 </defs>
 <g
   id="Layer_x0020_1">
  <metadata
   id="CorelCorpID_0Corel-Layer" />
  <path
   class="fil0"
   d="M29165 12881l0 1956c-19,581 -135,1104 -349,1549 -174,387 -446,756 -833,1046 -387,309 -910,484 -1607,484 -698,0 -1240,-175 -1627,-484 -387,-290 -639,-659 -813,-1046 -213,-445 -329,-968 -349,-1549l0 -8387c20,-562 135,-1085 349,-1530 174,-387 426,-775 813,-1065 387,-290 930,-485 1627,-485 698,0 1220,195 1607,485 387,291 659,678 833,1065 213,446 330,968 349,1530l0 1956 -1956 0 0 -1956c0,-387 -97,-659 -310,-891 -97,-97 -271,-155 -484,-155 -368,0 -542,271 -639,523 -57,155 -77,330 -97,524l0 8387c20,406 136,678 330,890 97,98 232,155 406,155 446,0 620,-232 717,-523 57,-135 77,-310 77,-523l0 -1956 1956 0zm6096 2305c-57,1027 -367,1743 -1045,2305 -349,291 -833,426 -1472,426 -1260,0 -1879,-698 -2189,-1395 -174,-406 -290,-871 -309,-1394l0 -5327c58,-1027 367,-1781 1045,-2362 330,-292 814,-427 1453,-427 1259,0 1898,698 2208,1375 174,407 290,853 309,1357l0 5443zm-1840 -5386c20,-406 -58,-697 -252,-930 -97,-97 -252,-155 -426,-155 -369,0 -524,252 -601,542 -58,155 -77,330 -58,542l0 5327c-19,406 78,698 252,910 97,97 232,155 407,155 367,0 542,-232 619,-523 58,-155 78,-330 58,-542l0 -5327zm8141 7961l-1956 0 0 -698c-329,310 -619,542 -987,717 -195,97 -388,135 -562,135 -542,0 -910,-310 -1143,-717 -252,-387 -367,-910 -367,-1355l0 -6760c0,-445 116,-968 367,-1375 233,-387 601,-698 1143,-698 367,0 756,213 1046,427 174,135 329,271 503,426l0 -4339 1956 0 0 14237zm-1956 -8271c0,-310 -291,-639 -581,-639 -291,0 -523,271 -523,639l0 5946c0,369 232,639 523,639 290,0 581,-271 581,-639l0 -5946zm8425 4474l0 1221c-58,1027 -367,1743 -1065,2305 -349,291 -833,426 -1472,426 -1259,0 -1898,-698 -2208,-1395 -174,-406 -290,-871 -310,-1394l0 -5327c58,-1027 387,-1781 1085,-2362 330,-292 814,-427 1453,-427 1259,0 1898,698 2208,1375 174,407 290,853 309,1357l0 3080 -3235 0 0 2305c20,406 135,698 310,910 97,97 232,155 407,155 368,0 542,-232 619,-523 58,-155 77,-330 77,-542l0 -1163 1821 0zm-3235 -2673l1414 0 0 -1492c0,-406 -77,-697 -271,-930 -97,-97 -252,-155 -426,-155 -369,0 -524,252 -620,542 -58,155 -77,330 -97,542l0 1492zm8451 -2111c-174,-58 -367,-77 -542,-77 -309,0 -678,39 -987,329 -369,310 -427,639 -427,968l0 7361 -1956 0 0 -10596 1956 0 0 1182c20,-135 155,-465 465,-775 310,-291 775,-562 1491,-562l0 2170zm854 8581l0 -14237 1647 0c1936,0 2983,387 3544,1472 542,1085 620,2867 620,5656 0,2789 -78,4552 -620,5637 -561,1085 -1608,1472 -3544,1472l-1647 0zm2093 -2092c716,0 1123,-78 1336,-776 97,-329 175,-833 194,-1511 20,-678 20,-1588 20,-2751 0,-1162 0,-2072 -20,-2751 -19,-658 -97,-1162 -194,-1511 -212,-678 -619,-755 -1336,-755l0 10053zm9937 -484c-57,1027 -367,1743 -1045,2305 -349,291 -833,426 -1472,426 -1260,0 -1879,-698 -2189,-1395 -174,-406 -291,-871 -309,-1394l0 -5327c58,-1027 368,-1781 1045,-2362 330,-292 814,-427 1453,-427 1259,0 1898,698 2208,1375 174,407 290,853 309,1357l0 5443zm-1840 -5386c20,-406 -58,-697 -252,-930 -97,-97 -252,-155 -426,-155 -369,0 -524,252 -601,542 -58,155 -77,330 -58,542l0 5327c-19,406 78,698 252,910 97,97 232,155 407,155 368,0 542,-232 619,-523 58,-155 78,-330 58,-542l0 -5327zm3143 -6276l1956 0 0 1956 -1956 0 0 -1956zm1956 3642l0 10866c0,542 0,1395 -271,2093 -271,716 -871,1278 -1976,1278 -309,0 -523,-20 -658,-58 -78,-20 -135,-39 -194,-58l0 -1801c58,19 116,19 174,38 135,20 252,39 369,39 329,0 484,-271 561,-600 20,-155 39,-330 39,-504 0,-175 0,-330 0,-446l0 -10847 1956 0zm6387 8020c-57,1027 -368,1743 -1045,2305 -349,291 -833,426 -1472,426 -1260,0 -1879,-698 -2189,-1395 -174,-406 -290,-871 -309,-1394l0 -5327c58,-1027 367,-1781 1045,-2362 330,-292 814,-427 1453,-427 1259,0 1898,698 2208,1375 174,407 290,853 309,1357l0 5443zm-1840 -5386c20,-406 -58,-697 -252,-930 -97,-97 -252,-155 -426,-155 -368,0 -524,252 -601,542 -58,155 -77,330 -58,542l0 5327c-19,406 78,698 252,910 97,97 232,155 407,155 368,0 542,-232 620,-523 58,-155 78,-330 58,-542l0 -5327z"
   id="path10" />
  <g
   id="_833871744">
   <circle
   class="fil1"
   cx="10646"
   cy="10690"
   r="10483"
   id="circle13" />
   <path
   class="fil0"
   d="M10690 0c5904,0 10690,4786 10690,10690 0,5904 -4786,10690 -10690,10690 -5904,0 -10690,-4786 -10690,-10690 0,-5904 4786,-10690 10690,-10690zm-108 553c-50,0 -100,1 -150,2 -5528,80 -9989,4590 -9989,10136 0,5553 4471,10066 10008,10136 -2738,-69 -4938,-2313 -4938,-5067 0,-2798 2271,-5069 5069,-5069 2798,0 5069,-2271 5069,-5069 0,-2798 -2271,-5069 -5069,-5069z"
   id="path15" />
   <path
   class="fil0"
   d="M8982 6619l0 -3779c0,-165 60,-308 181,-428 120,-120 263,-181 429,-181l1970 0c163,0 304,60 423,181 119,120 178,263 178,428l0 3779c0,168 -60,311 -178,430 -119,119 -263,178 -431,178l-1962 0c-170,0 -315,-59 -433,-178 -118,-119 -176,-262 -176,-430zm2557 -23l0 -3725 -1925 0 0 3725 1925 0z"
   id="path17" />
   <path
   class="fil2"
   d="M9702 18043l970 0 0 -3725 -954 0c-88,0 -162,-31 -224,-92 -62,-61 -92,-136 -92,-224 0,-87 31,-162 92,-223 61,-61 136,-92 224,-92l1586 0 0 4357 632 0 0 -1315c0,-85 31,-159 92,-222 61,-63 136,-94 223,-94 88,0 163,31 224,92 61,62 92,136 92,224l0 1631c0,88 -31,163 -92,225 -61,61 -135,91 -224,91l-2549 0c-88,0 -162,-32 -223,-95 -62,-64 -92,-140 -92,-228 0,-85 31,-158 92,-219 61,-60 136,-90 223,-90z"
   id="path19" />
  </g>
 </g>
</svg>