<?xml version="1.0" encoding="utf-8"?>
<!-- Generator: Adobe Illustrator 16.0.0, SVG Export Plug-In . SVG Version: 6.00 Build 0)  -->
<!DOCTYPE svg PUBLIC "-//W3C//DTD SVG 1.1//EN" "http://www.w3.org/Graphics/SVG/1.1/DTD/svg11.dtd">
<svg version="1.1" id="Layer_1" xmlns="http://www.w3.org/2000/svg" xmlns:xlink="http://www.w3.org/1999/xlink" x="0px" y="0px"
	 width="131px" height="43px" viewBox="0 0 131 43" enable-background="new 0 0 131 43" xml:space="preserve">
<g>
	<g>
		<path d="M55.477,32.696c0,0.071,0.002,0.146,0.006,0.229c0.004,0.081,0.011,0.164,0.02,0.249l-2.755-3.518
			c0,0-0.114-0.15-0.328-0.15h-0.512v5.251h0.86v-3.226c0-0.062-0.002-0.134-0.004-0.209c-0.004-0.076-0.011-0.154-0.018-0.229
			l2.746,3.497c0.048,0.062,0.096,0.098,0.152,0.125c0.054,0.025,0.107,0.037,0.188,0.042h0.505v-5.251h-0.861V32.696z"/>
		<polygon points="62.483,34.756 65.794,34.756 65.794,33.976 63.467,33.976 63.467,32.491 65.301,32.491 65.301,31.739 
			63.467,31.739 63.467,30.282 65.794,30.282 65.794,29.505 62.483,29.505 		"/>
		<polygon points="71.283,30.307 72.869,30.307 72.869,34.756 73.846,34.756 73.846,30.307 75.426,30.307 75.426,29.505 
			71.283,29.505 		"/>
		<path d="M87.193,29.593c-0.092,0.072-0.133,0.158-0.15,0.221l-0.869,3.055c-0.018,0.075-0.037,0.156-0.055,0.244
			c-0.02,0.086-0.037,0.178-0.055,0.271c-0.037-0.188-0.084-0.36-0.137-0.516l-1.004-3.078c-0.02-0.066-0.082-0.148-0.145-0.196
			c-0.072-0.058-0.176-0.088-0.26-0.088h-0.176c-0.082,0-0.189,0.032-0.258,0.089c-0.068,0.059-0.123,0.141-0.143,0.195
			l-1.008,3.078c-0.027,0.076-0.053,0.16-0.074,0.252c-0.023,0.09-0.045,0.188-0.064,0.289c-0.016-0.104-0.035-0.199-0.053-0.289
			c-0.018-0.092-0.037-0.176-0.061-0.252l-0.867-3.055c-0.02-0.068-0.072-0.16-0.15-0.222c-0.074-0.056-0.178-0.089-0.264-0.089
			h-0.76l1.631,5.252h0.885l1.156-3.588c0.016-0.047,0.029-0.096,0.047-0.149c0.016-0.053,0.029-0.108,0.045-0.171
			c0.014,0.062,0.029,0.118,0.045,0.171c0.016,0.056,0.031,0.104,0.047,0.149l1.146,3.588h0.883l1.631-5.252h-0.721
			C87.354,29.505,87.254,29.546,87.193,29.593"/>
		<path d="M107.207,32.516c0.184-0.06,0.348-0.136,0.492-0.233c0.143-0.096,0.264-0.209,0.361-0.336
			c0.1-0.129,0.174-0.271,0.227-0.43c0.051-0.157,0.078-0.324,0.078-0.501c0-0.224-0.039-0.429-0.115-0.612
			c-0.076-0.185-0.197-0.344-0.359-0.477c-0.164-0.135-0.373-0.237-0.629-0.312c-0.256-0.074-0.561-0.111-0.92-0.111h-1.602v5.254
			h0.977v-2.053h0.418c0.094,0,0.17,0.023,0.215,0.053c0.061,0.033,0.104,0.066,0.143,0.121l1.104,1.683
			c0.041,0.062,0.092,0.111,0.15,0.146c0.059,0.033,0.131,0.052,0.217,0.052h0.879l-1.312-1.938
			C107.434,32.687,107.33,32.585,107.207,32.516 M106.807,31.935c-0.137,0.046-0.297,0.068-0.479,0.068h-0.609v-1.742h0.625
			c0.359,0,0.629,0.07,0.805,0.214s0.264,0.347,0.264,0.612c0,0.135-0.021,0.257-0.066,0.367c-0.043,0.11-0.105,0.207-0.193,0.289
			C107.057,31.825,106.945,31.889,106.807,31.935"/>
		<path d="M117.031,32.094c-0.062-0.054-0.137-0.095-0.217-0.123c0.059-0.029,0.113-0.065,0.164-0.112
			c0.051-0.046,0.104-0.104,0.16-0.171l1.77-2.185h-0.844c-0.102,0-0.186,0.017-0.252,0.047c-0.066,0.029-0.131,0.084-0.191,0.162
			l-1.447,1.834c-0.043,0.056-0.098,0.097-0.156,0.121c-0.061,0.024-0.137,0.039-0.229,0.039h-0.229v-2.205h-0.979v5.255h0.979
			v-2.31h0.309c0.109,0,0.195,0.014,0.258,0.041s0.115,0.072,0.164,0.137l1.486,1.938c0.037,0.062,0.086,0.11,0.143,0.145
			c0.059,0.033,0.145,0.05,0.262,0.05h0.861l-1.82-2.459C117.158,32.215,117.096,32.147,117.031,32.094"/>
		<path d="M127.748,32.556c-0.068-0.152-0.16-0.281-0.273-0.389c-0.111-0.104-0.244-0.191-0.389-0.26
			c-0.146-0.07-0.293-0.132-0.445-0.184c-0.148-0.052-0.301-0.104-0.441-0.146c-0.146-0.045-0.275-0.099-0.391-0.154
			c-0.113-0.059-0.207-0.131-0.273-0.213c-0.068-0.08-0.104-0.186-0.104-0.31c0-0.096,0.018-0.185,0.051-0.267
			c0.035-0.081,0.086-0.15,0.154-0.208c0.068-0.062,0.152-0.104,0.256-0.138c0.1-0.031,0.217-0.049,0.354-0.049
			c0.15,0,0.279,0.02,0.391,0.058c0.109,0.034,0.207,0.077,0.289,0.125c0.082,0.046,0.152,0.088,0.215,0.125
			c0.061,0.036,0.113,0.057,0.162,0.057s0.092-0.011,0.127-0.032c0.033-0.021,0.064-0.06,0.092-0.113l0.24-0.461
			c-0.186-0.174-0.408-0.31-0.67-0.405c-0.262-0.097-0.547-0.146-0.854-0.146c-0.275,0-0.52,0.043-0.73,0.127
			c-0.213,0.084-0.393,0.196-0.539,0.338s-0.26,0.303-0.334,0.481c-0.076,0.183-0.113,0.368-0.113,0.56
			c0,0.239,0.035,0.441,0.104,0.604c0.07,0.163,0.16,0.299,0.273,0.409c0.113,0.107,0.244,0.195,0.389,0.264
			c0.146,0.069,0.293,0.127,0.443,0.176c0.148,0.049,0.297,0.094,0.441,0.135c0.146,0.041,0.275,0.093,0.391,0.149
			c0.111,0.06,0.205,0.134,0.271,0.222c0.07,0.086,0.104,0.198,0.104,0.336c0,0.248-0.076,0.438-0.229,0.568
			c-0.15,0.133-0.367,0.198-0.646,0.198c-0.182,0-0.338-0.024-0.469-0.075c-0.129-0.049-0.24-0.104-0.336-0.165
			c-0.096-0.06-0.18-0.114-0.25-0.165c-0.068-0.05-0.135-0.072-0.195-0.072c-0.045,0-0.086,0.012-0.125,0.032
			c-0.035,0.023-0.068,0.052-0.096,0.087l-0.283,0.469c0.104,0.104,0.219,0.199,0.348,0.283c0.131,0.084,0.27,0.155,0.418,0.217
			s0.305,0.106,0.467,0.141s0.326,0.05,0.494,0.05c0.291,0,0.549-0.044,0.771-0.133c0.227-0.088,0.416-0.209,0.572-0.363
			c0.156-0.153,0.275-0.334,0.355-0.54c0.08-0.207,0.121-0.43,0.121-0.666C127.852,32.894,127.818,32.706,127.748,32.556"/>
		<path d="M96.203,29.446c-1.482,0-2.686,1.202-2.686,2.688c0,1.48,1.203,2.685,2.686,2.685s2.686-1.2,2.686-2.685
			C98.889,30.648,97.686,29.446,96.203,29.446 M96.203,34.008c-1.035,0-1.875-0.841-1.875-1.876c0-1.036,0.84-1.876,1.875-1.876
			c1.037,0,1.877,0.84,1.877,1.876C98.08,33.167,97.24,34.008,96.203,34.008"/>
		<path d="M59.979,8.092c-4.424,0-8.023,3.599-8.023,8.024c0,4.424,3.6,8.022,8.023,8.022c4.425,0,8.025-3.599,8.025-8.022
			C68.004,11.69,64.405,8.092,59.979,8.092 M59.979,20.549c-2.448,0-4.433-1.985-4.433-4.433c0-2.449,1.984-4.435,4.433-4.435
			c2.449,0,4.434,1.985,4.434,4.435C64.413,18.563,62.428,20.549,59.979,20.549"/>
		<path d="M15.195,17.34c-2.297,0-4.159,1.862-4.159,4.159c0,2.295,1.862,4.158,4.159,4.158c2.297,0,4.159-1.861,4.159-4.158
			S17.492,17.34,15.195,17.34"/>
		<path d="M6.431,29.79c1.814,0,3.285-1.473,3.285-3.284c0-1.814-1.471-3.285-3.285-3.285s-3.285,1.471-3.285,3.285
			C3.146,28.319,4.617,29.79,6.431,29.79"/>
		<path d="M23.952,23.221c-1.814,0-3.285,1.472-3.285,3.285s1.471,3.284,3.285,3.284s3.285-1.472,3.285-3.284
			C27.237,24.692,25.766,23.221,23.952,23.221"/>
		<path d="M15.195,14.655c1.814,0,3.285-1.471,3.285-3.285c0-1.813-1.471-3.285-3.285-3.285S11.91,9.557,11.91,11.37
			C11.91,13.185,13.381,14.655,15.195,14.655"/>
		<path d="M6.429,19.776c1.814,0,3.285-1.486,3.285-3.318c0-0.858-0.325-1.637-0.854-2.227l0.008-0.001
			c-0.677-0.747-1.094-1.739-1.094-2.832c0-1.09,0.414-2.079,1.087-2.825L8.856,8.568c0.531-0.589,0.857-1.37,0.857-2.229
			c0-1.833-1.471-3.318-3.285-3.318S3.144,4.507,3.144,6.34c0,0.858,0.326,1.64,0.857,2.229L3.997,8.573
			c0.673,0.746,1.087,1.735,1.087,2.825c0,1.093-0.416,2.085-1.093,2.832l0.008,0.001c-0.53,0.59-0.855,1.368-0.855,2.227
			C3.144,18.29,4.615,19.776,6.429,19.776"/>
		<path d="M34.253,18.646c-0.741-0.433-1.581-0.544-2.356-0.383l-0.002-0.005c-0.984,0.205-2.047,0.064-2.988-0.484
			c-0.944-0.551-1.591-1.41-1.896-2.371l-0.005,0.006c-0.242-0.754-0.751-1.428-1.493-1.859c-1.583-0.924-3.607-0.401-4.521,1.166
			c-0.914,1.566-0.372,3.586,1.212,4.509c0.741,0.433,1.578,0.544,2.354,0.384l-0.004,0.008c0.987-0.209,2.054-0.068,2.998,0.481
			c0.941,0.549,1.587,1.405,1.893,2.362h0.005c0.242,0.755,0.752,1.429,1.494,1.861c1.584,0.924,3.607,0.4,4.521-1.166
			S35.836,19.569,34.253,18.646"/>
		<path d="M13.584,28.788c-0.745,0.43-1.258,1.103-1.504,1.854l-0.006-0.001c-0.311,0.956-0.961,1.809-1.905,2.354
			c-0.947,0.545-2.015,0.68-3,0.465l0.003,0.009c-0.775-0.164-1.612-0.058-2.356,0.371c-1.588,0.915-2.141,2.932-1.236,4.503
			c0.906,1.572,2.928,2.104,4.516,1.189c0.743-0.43,1.256-1.101,1.503-1.853l0.004,0.006c0.31-0.959,0.962-1.815,1.909-2.36
			c0.944-0.543,2.007-0.68,2.99-0.47l0.002-0.005c0.776,0.166,1.615,0.061,2.359-0.37c1.588-0.915,2.142-2.932,1.236-4.503
			C17.195,28.407,15.173,27.874,13.584,28.788"/>
		<path d="M95.576,20.909c0.018-0.021,0.033-0.043,0.051-0.066c0.111-0.154,0.221-0.312,0.322-0.475
			c0.039-0.062,0.076-0.125,0.113-0.188c0.08-0.136,0.158-0.272,0.229-0.412c0.051-0.097,0.098-0.194,0.143-0.294
			c0.057-0.119,0.109-0.236,0.16-0.359c0.051-0.125,0.096-0.255,0.141-0.385c0.037-0.104,0.074-0.207,0.107-0.314
			c0.045-0.151,0.082-0.307,0.117-0.461c0.021-0.092,0.049-0.183,0.062-0.275c0.037-0.18,0.062-0.364,0.084-0.548
			c0.012-0.074,0.025-0.147,0.031-0.222c0.027-0.261,0.041-0.523,0.041-0.791c0,0,0,0,0-0.002v-0.002
			c0-0.012-0.002-0.022-0.002-0.035c0-0.25-0.014-0.496-0.037-0.738c-0.01-0.096-0.025-0.189-0.039-0.283
			c-0.02-0.159-0.041-0.316-0.07-0.473c-0.021-0.11-0.051-0.217-0.076-0.326c-0.029-0.135-0.062-0.268-0.104-0.4
			c-0.035-0.117-0.072-0.232-0.113-0.349c-0.039-0.115-0.08-0.229-0.125-0.343c-0.051-0.125-0.104-0.248-0.158-0.37
			c-0.043-0.093-0.088-0.185-0.133-0.274c-0.068-0.137-0.143-0.271-0.219-0.402c-0.033-0.062-0.072-0.123-0.109-0.184
			c-0.096-0.154-0.191-0.309-0.297-0.455c-0.014-0.015-0.021-0.029-0.033-0.044c-1.453-2.017-3.814-3.338-6.484-3.345
			c-0.006,0-0.01-0.001-0.016-0.001h-0.004h-3.115h-0.555h-2.453h-0.541v16.047h0.541h2.453h0.555h3.115h0.004
			C91.787,24.137,94.113,22.864,95.576,20.909 M89.158,11.682c2.447,0,4.434,1.985,4.434,4.433c0,2.449-1.986,4.435-4.434,4.435
			h-3.113v-8.867H89.158z"/>
		<path d="M126.027,20.911c0.018-0.023,0.033-0.045,0.051-0.068c0.111-0.154,0.221-0.312,0.32-0.475
			c0.041-0.062,0.078-0.125,0.115-0.188c0.08-0.136,0.156-0.271,0.229-0.411c0.051-0.098,0.098-0.197,0.145-0.296
			c0.053-0.118,0.107-0.235,0.156-0.358c0.053-0.125,0.098-0.255,0.143-0.385c0.037-0.104,0.074-0.207,0.105-0.312
			c0.045-0.153,0.082-0.31,0.119-0.465c0.021-0.092,0.047-0.182,0.062-0.273c0.037-0.182,0.062-0.366,0.086-0.551
			c0.01-0.073,0.023-0.146,0.029-0.219c0.027-0.261,0.041-0.523,0.041-0.791c0,0,0,0,0-0.002v-0.002
			c0-0.009-0.002-0.018-0.002-0.027c0-0.252-0.014-0.502-0.037-0.747c-0.01-0.095-0.027-0.187-0.039-0.28
			c-0.02-0.159-0.041-0.318-0.072-0.475c-0.02-0.11-0.049-0.217-0.072-0.324c-0.033-0.135-0.064-0.27-0.104-0.403
			c-0.035-0.116-0.074-0.231-0.113-0.347c-0.041-0.116-0.08-0.23-0.127-0.344c-0.049-0.125-0.104-0.248-0.156-0.369
			c-0.043-0.094-0.088-0.186-0.135-0.276c-0.066-0.136-0.139-0.271-0.215-0.401c-0.037-0.062-0.074-0.123-0.111-0.185
			c-0.096-0.153-0.191-0.308-0.299-0.454c-0.01-0.015-0.021-0.029-0.031-0.044c-1.453-2.017-3.814-3.338-6.484-3.345
			c-0.006,0-0.01-0.001-0.018-0.001h-0.002h-3.115h-0.557h-2.451h-0.541v16.047h0.541h2.451h0.557h3.115h0.002
			C122.238,24.137,124.562,22.864,126.027,20.911 M119.607,11.682c2.449,0,4.436,1.985,4.436,4.433c0,2.449-1.986,4.435-4.436,4.435
			h-3.111v-8.867H119.607z"/>
	</g>
</g>
</svg>
