<svg xmlns="http://www.w3.org/2000/svg" width="131" height="43" viewBox="0 0 131 43"><path d="M55.477 32.696c0 .07.002.146.006.23.004.08.01.163.02.248l-2.755-3.518s-.114-.15-.328-.15h-.512v5.25h.86v-3.225c0-.06-.002-.133-.004-.208-.004-.076-.01-.154-.018-.23l2.746 3.498c.048.062.096.098.152.125.054.025.107.037.188.042h.505v-5.25h-.86v3.19zM62.483 34.756h3.31v-.78h-2.326V32.49H65.3v-.75h-1.833V30.28h2.327v-.777h-3.31M71.283 30.307h1.586v4.45h.976v-4.45h1.58v-.802h-4.143M87.193 29.593c-.092.072-.133.158-.15.22l-.87 3.056c-.017.074-.036.155-.054.243-.02.086-.038.178-.056.27-.037-.187-.084-.36-.137-.515l-1.004-3.078c-.02-.066-.082-.148-.145-.196-.072-.058-.176-.088-.26-.088h-.176c-.082 0-.19.032-.258.09-.068.058-.123.14-.143.194l-1.007 3.078c-.027.076-.053.16-.074.252-.024.09-.046.188-.065.29-.016-.105-.035-.2-.053-.29-.018-.092-.037-.176-.06-.252l-.868-3.055c-.02-.068-.072-.16-.15-.222-.074-.055-.178-.088-.264-.088h-.76l1.63 5.252h.886l1.156-3.588c.016-.047.03-.096.047-.15.015-.052.028-.107.044-.17.014.062.03.118.045.17.015.057.03.105.046.15l1.146 3.588h.883l1.63-5.252h-.72c-.08.003-.18.044-.242.09M107.207 32.516c.184-.06.348-.136.492-.233.142-.096.263-.21.36-.336.1-.13.174-.27.227-.43.05-.157.078-.324.078-.5 0-.225-.04-.43-.115-.613-.076-.185-.197-.344-.36-.477-.163-.135-.372-.237-.628-.312-.256-.074-.56-.11-.92-.11h-1.602v5.253h.977v-2.053h.418c.094 0 .17.023.215.053.06.033.104.066.143.12l1.104 1.684c.04.062.092.11.15.146.06.033.13.052.217.052h.88l-1.313-1.938c-.096-.135-.2-.237-.323-.306m-.4-.58c-.137.045-.297.067-.48.067h-.608V30.26h.624c.36 0 .63.07.805.215s.263.347.263.612c0 .135-.02.257-.066.367-.043.11-.105.207-.193.29-.097.08-.21.145-.347.19M117.03 32.094c-.06-.054-.136-.095-.216-.123.06-.028.113-.064.164-.11.05-.047.104-.105.16-.172l1.77-2.185h-.844c-.102 0-.186.017-.252.047s-.13.084-.19.162l-1.448 1.834c-.043.056-.098.097-.156.12-.06.025-.137.04-.23.04h-.228V29.5h-.98v5.256h.98v-2.31h.31c.108 0 .194.014.257.04s.115.073.164.138l1.487 1.938c.037.062.086.11.143.145.06.033.145.05.262.05h.86l-1.82-2.46c-.064-.082-.126-.15-.19-.203M127.748 32.556c-.068-.152-.16-.28-.273-.39-.11-.103-.244-.19-.39-.26-.145-.07-.292-.13-.444-.183-.147-.052-.3-.104-.44-.146-.146-.045-.275-.1-.39-.154-.114-.06-.208-.13-.274-.213-.068-.08-.104-.186-.104-.31 0-.096.018-.185.05-.267.036-.08.087-.15.155-.208.068-.062.152-.104.256-.138.1-.03.217-.05.354-.05.15 0 .28.02.39.06.11.033.208.076.29.124l.215.126c.06.036.113.057.162.057s.092-.01.127-.032c.034-.02.065-.06.093-.112l.24-.46c-.186-.175-.408-.31-.67-.406-.262-.097-.547-.146-.854-.146-.276 0-.52.043-.73.127-.214.084-.394.196-.54.338s-.26.304-.334.482c-.076.183-.113.368-.113.56 0 .24.035.44.104.604.07.163.16.3.273.41.113.106.244.194.39.263.145.068.292.126.442.175.148.05.297.094.44.135.147.04.276.093.392.15.11.06.205.133.27.22.07.087.105.2.105.337 0 .248-.077.438-.23.568-.15.133-.367.198-.646.198-.182 0-.338-.024-.47-.075-.128-.05-.24-.104-.335-.165-.097-.06-.18-.114-.25-.165-.07-.05-.136-.072-.196-.072-.045 0-.086.012-.125.032-.036.023-.07.052-.097.087l-.283.47c.104.103.22.198.348.282.13.084.27.155.418.217s.305.106.467.14.326.05.494.05c.29 0 .55-.043.77-.132.228-.088.417-.21.573-.363.156-.154.275-.335.355-.54.08-.208.12-.43.12-.667-.003-.22-.037-.407-.107-.557M96.203 29.446c-1.482 0-2.686 1.202-2.686 2.688 0 1.48 1.203 2.685 2.686 2.685s2.686-1.2 2.686-2.686-1.204-2.688-2.687-2.688m0 4.562c-1.035 0-1.875-.84-1.875-1.876s.84-1.876 1.875-1.876c1.037 0 1.877.84 1.877 1.876 0 1.035-.84 1.876-1.877 1.876M59.98 8.092c-4.425 0-8.024 3.6-8.024 8.024 0 4.424 3.6 8.022 8.023 8.022 4.424 0 8.024-3.6 8.024-8.022 0-4.426-3.6-8.024-8.025-8.024m0 12.457c-2.45 0-4.434-1.986-4.434-4.434 0-2.45 1.984-4.435 4.433-4.435 2.448 0 4.433 1.986 4.433 4.436 0 2.447-1.985 4.433-4.434 4.433M15.195 17.34c-2.297 0-4.16 1.862-4.16 4.16 0 2.294 1.863 4.157 4.16 4.157s4.16-1.86 4.16-4.158-1.863-4.16-4.16-4.16M6.43 29.79c1.815 0 3.286-1.473 3.286-3.284 0-1.814-1.47-3.285-3.285-3.285s-3.284 1.472-3.284 3.286c0 1.813 1.47 3.284 3.285 3.284M23.952 23.22c-1.814 0-3.285 1.473-3.285 3.286s1.47 3.284 3.285 3.284 3.285-1.472 3.285-3.284c0-1.814-1.47-3.285-3.285-3.285M15.195 14.655c1.814 0 3.285-1.47 3.285-3.285 0-1.813-1.47-3.285-3.285-3.285S11.91 9.557 11.91 11.37c0 1.815 1.47 3.285 3.285 3.285M6.43 19.776c1.813 0 3.284-1.486 3.284-3.318 0-.858-.325-1.637-.854-2.227h.008c-.677-.747-1.094-1.74-1.094-2.832 0-1.09.414-2.08 1.087-2.825l-.004-.005c.53-.59.857-1.37.857-2.23 0-1.832-1.47-3.317-3.285-3.317S3.144 4.508 3.144 6.34c0 .858.326 1.64.857 2.23l-.003.003c.673.746 1.087 1.735 1.087 2.825 0 1.093-.416 2.085-1.093 2.832H4c-.53.59-.856 1.37-.856 2.228 0 1.832 1.47 3.318 3.285 3.318M34.253 18.646c-.74-.433-1.58-.544-2.356-.383l-.002-.005c-.984.205-2.047.064-2.988-.484-.944-.55-1.59-1.41-1.896-2.37l-.004.005c-.242-.755-.75-1.43-1.493-1.86-1.583-.924-3.607-.4-4.52 1.166-.915 1.566-.373 3.586 1.21 4.51.742.432 1.58.543 2.355.383l-.004.007c.987-.21 2.054-.068 2.998.48.94.55 1.587 1.406 1.893 2.363h.005c.242.755.752 1.43 1.494 1.86 1.584.925 3.607.4 4.52-1.165s.372-3.586-1.21-4.51M13.584 28.788c-.745.43-1.258 1.103-1.504 1.854h-.006c-.31.955-.96 1.808-1.905 2.353-.948.545-2.016.68-3 .465l.002.01c-.775-.165-1.612-.06-2.356.37-1.588.915-2.14 2.932-1.236 4.503.906 1.572 2.928 2.104 4.516 1.19.743-.43 1.256-1.102 1.503-1.854l.003.005c.31-.96.962-1.815 1.91-2.36.943-.543 2.006-.68 2.99-.47v-.005c.777.166 1.616.06 2.36-.37 1.588-.915 2.142-2.932 1.236-4.503-.905-1.57-2.927-2.103-4.516-1.19M95.576 20.91c.018-.022.033-.044.05-.067.112-.154.222-.312.323-.475l.112-.188c.08-.136.158-.272.23-.412.05-.097.097-.194.142-.294.057-.12.11-.236.16-.36s.096-.254.14-.384c.038-.104.075-.207.108-.314.045-.15.082-.307.117-.46.02-.093.048-.184.06-.276.038-.18.063-.364.085-.548.012-.074.025-.147.03-.222.028-.26.042-.523.042-.79v-.005l-.002-.035c0-.25-.014-.496-.037-.738-.01-.096-.025-.19-.04-.283-.02-.16-.04-.317-.07-.474-.02-.11-.05-.217-.075-.326-.03-.135-.062-.268-.104-.4-.036-.117-.073-.232-.114-.35-.04-.114-.08-.228-.125-.342-.05-.125-.103-.248-.157-.37-.043-.093-.088-.185-.133-.274-.068-.137-.143-.27-.22-.402-.032-.062-.07-.123-.108-.184-.096-.154-.19-.31-.297-.455-.014-.015-.02-.03-.033-.044-1.453-2.018-3.814-3.34-6.484-3.346H82.495V24.14h6.667c2.625-.003 4.95-1.276 6.414-3.23m-6.418-9.228c2.447 0 4.434 1.985 4.434 4.433 0 2.45-1.986 4.435-4.434 4.435h-3.113v-8.867h3.113zM126.027 20.91c.018-.022.033-.044.05-.067.112-.154.222-.312.32-.475.042-.062.08-.125.116-.188.08-.136.156-.27.23-.41.05-.1.097-.198.144-.297.053-.118.107-.235.156-.358.053-.125.098-.255.143-.385.037-.104.074-.207.105-.312.046-.153.083-.31.12-.465.02-.092.047-.182.062-.273.037-.182.062-.366.086-.55.01-.074.023-.147.03-.22.026-.26.04-.523.04-.79v-.005l-.002-.027c0-.252-.014-.502-.037-.747-.01-.094-.028-.186-.04-.28-.02-.158-.04-.317-.072-.474-.02-.11-.05-.217-.072-.324-.033-.135-.064-.27-.104-.403-.035-.117-.074-.232-.113-.348-.042-.116-.08-.23-.128-.344-.05-.125-.104-.248-.156-.37-.043-.093-.088-.185-.135-.275-.065-.136-.138-.27-.214-.4l-.11-.186c-.097-.153-.192-.308-.3-.454l-.03-.044C124.66 9.42 122.3 8.1 119.63 8.093H112.95V24.14h6.666c2.625-.003 4.95-1.276 6.414-3.23m-6.42-9.228c2.45 0 4.436 1.985 4.436 4.433 0 2.45-1.986 4.435-4.436 4.435h-3.11v-8.867h3.11z"/></svg>