<?xml version="1.0" encoding="utf-8"?>
<!-- Generator: Adobe Illustrator 19.2.1, SVG Export Plug-In . SVG Version: 6.00 Build 0)  -->
<svg version="1.1" id="Layer_1" xmlns="http://www.w3.org/2000/svg" xmlns:xlink="http://www.w3.org/1999/xlink" x="0px" y="0px"
	 viewBox="0 0 1846 600" style="enable-background:new 0 0 1846 600;" xml:space="preserve">
<g>
	<path d="M574.7,410.3c-4.6-2.3-5-3.6-5-12.6c0-16.5,1.3-29.8,1.7-35.1c0.3-3.6,1-5.3,2.6-5.3c2,0,2.3,1,2.3,3.6c0,3,0,7.6,1,12.2
		c5,24.5,26.8,33.7,49,33.7c31.8,0,47.3-22.8,47.3-44c0-22.8-9.6-36.1-38-59.5l-14.9-12.2c-35.1-28.8-43-49.3-43-71.8
		c0-35.4,26.5-59.5,68.5-59.5c12.9,0,22.5,1.3,30.8,3.3c6.3,1.3,8.9,1.7,11.6,1.7c2.6,0,3.3,0.7,3.3,2.3c0,1.7-1.3,12.6-1.3,35.1
		c0,5.3-0.7,7.6-2.3,7.6c-2,0-2.3-1.7-2.6-4.3c-0.3-4-2.3-12.9-4.3-16.5c-2-3.6-10.9-17.5-41.3-17.5c-22.8,0-40.7,14.2-40.7,38.4
		c0,18.9,8.6,30.8,40.4,55.6l9.3,7.3c39,30.8,48.3,51.3,48.3,77.7c0,13.6-5.3,38.7-28.1,54.9c-14.2,9.9-32.1,13.9-49.9,13.9
		C603.5,419.3,588.3,417,574.7,410.3z"/>
	<path d="M766.9,283.3c0-43.3,0-51.3-0.7-60.2c-0.7-9.3-3-13.9-12.6-15.9c-2-0.3-5.3-0.7-7.9-0.7c-2.3,0-4.3-1-4.3-2
		c0-2,1.7-2.6,5-2.6c6.6,0,15.5,0.7,34.1,1c1.7,0,60.5,0,67.1-0.3c6.6-0.3,10.3-0.7,12.9-1.7c2-0.7,2.3-1,3.6-1
		c0.7,0,1.3,0.7,1.3,2.3c0,2-2,6.6-2.6,14.9c-0.3,5.6-0.7,10.9-1,17.2c0,3-0.7,5-2.3,5c-1.7,0-2.3-1.3-2.3-3.6
		c-0.3-5-1.3-8.3-2.3-10.6c-2-6.6-5-8.9-21.5-9.9c-4.3-0.3-37-0.7-37.7-0.7c-1,0-1.7,0.7-1.7,2.6v75.1c0,2,0.3,3.3,2,3.3
		c4,0,37.7-0.3,44.7-1c7.6-0.3,12.6-1.3,15.2-5c1.3-2,2.3-2.6,3.6-2.6c0.7,0,1.3,0.3,1.3,2c0,1.7-1.3,7.9-2.3,17.5
		c-1,9.3-1,15.9-1.3,20.2c-0.3,2.6-1,3.6-2.3,3.6c-1.7,0-2-2-2-4.3c0-2-0.3-5.3-1-7.9c-1.3-4.3-3.3-8.9-15.9-9.9
		c-7.6-0.7-34.4-1.3-39.7-1.3c-2,0-2.3,1-2.3,2.3v24.1c0,10.3-0.3,39.4,0,45c0.7,12.2,2.3,18.5,9.3,21.5c5,2.3,12.9,3,24.1,3
		c6.3,0,16.9,0.3,25.1-2c9.9-3,12.2-9.6,14.9-21.8c0.7-3.3,1.7-4.6,3-4.6c2,0,2,3,2,5c0,2.3-2.6,23.2-3.6,28.8
		c-1.3,6.6-3.6,7.3-14.6,7.3c-21.8,0-31.1-0.7-42.7-0.7c-11.6-0.3-26.8-1-39-1c-7.6,0-13.9,1-21.8,1c-3,0-4.6-0.7-4.6-2.3
		c0-1.3,1.3-2.3,3-2.3c2,0,4.3-0.3,6.6-1c6-1.3,9.9-5.6,10.6-26.1c0.3-11.2,0.7-24.8,0.7-49.9V283.3z"/>
	<path d="M937.2,211.6c0-10.3,1-13.6,3.6-13.6c2.3,0,7.9,6.6,10.3,8.9c3,3.3,49,50.3,95.3,97.6c25.8,25.1,58.9,59.2,67.5,67.1
		l-3.6-137.6c-0.3-17.9-2.3-23.8-11.2-26.1c-5.6-1-10.6-1.3-12.9-1.3c-3.3,0-4-1.3-4-2.6c0-1.7,2.6-2,6-2c14.2,0,28.1,1,31.1,1
		c3.3,0,13.6-1,26.5-1c3.6,0,4.6,0.3,4.6,2c0,1.3-1,2.3-3,2.6c-2,0.3-4.6,0.3-8.3,1c-7.6,1.7-9.9,5-9.9,24.8l-0.7,166
		c0,16.5-0.7,18.2-3,18.2c-2.3,0-5.6-2.3-21.8-17.5c-1.3-0.7-47.3-46.3-76.1-74.4C993.1,289,960,254.6,951.7,246l4.3,129.3
		c0.7,22.8,2.6,31.4,10.9,33.4c5.3,1.3,10.9,1.3,13.6,1.3c2.6,0,4,1,4,2.3c0,1.7-1.7,2.3-5.3,2.3c-17.9,0-29.8-1-32.1-1
		c-2.3,0-14.6,1-28.8,1c-3,0-5-0.3-5-2.3c0-1.3,1.3-2.3,4.6-2.3c2.3,0,6,0,10.3-1.3c7.3-2.3,8.9-11.2,8.9-35.4
		C937.2,215.5,937.5,266.5,937.2,211.6z"/>
	<path d="M1223.6,283.3c0-43.3,0-51.3-0.7-60.2c-0.7-9.3-3-13.9-12.6-15.9c-2-0.3-5.3-0.7-7.9-0.7c-2.3,0-4.3-1-4.3-2
		c0-2,1.7-2.6,5-2.6c6.6,0,15.5,0.7,34.1,1c1.7,0,60.5,0,67.1-0.3c6.6-0.3,10.3-0.7,12.9-1.7c2-0.7,2.3-1,3.6-1
		c0.7,0,1.3,0.7,1.3,2.3c0,2-2,6.6-2.6,14.9c-0.3,5.6-0.7,10.9-1,17.2c0,3-0.7,5-2.3,5c-1.7,0-2.3-1.3-2.3-3.6
		c-0.3-5-1.3-8.3-2.3-10.6c-2-6.6-5-8.9-21.5-9.9c-4.3-0.3-37-0.7-37.7-0.7c-1,0-1.7,0.7-1.7,2.6v75.1c0,2,0.3,3.3,2,3.3
		c4,0,37.7-0.3,44.7-1c7.6-0.3,12.6-1.3,15.2-5c1.3-2,2.3-2.6,3.6-2.6c0.7,0,1.3,0.3,1.3,2c0,1.7-1.3,7.9-2.3,17.5
		c-1,9.3-1,15.9-1.3,20.2c-0.3,2.6-1,3.6-2.3,3.6c-1.7,0-2-2-2-4.3c0-2-0.3-5.3-1-7.9c-1.3-4.3-3.3-8.9-15.9-9.9
		c-7.6-0.7-34.4-1.3-39.7-1.3c-2,0-2.3,1-2.3,2.3v24.1c0,10.3-0.3,39.4,0,45c0.7,12.2,2.3,18.5,9.3,21.5c5,2.3,12.9,3,24.1,3
		c6.3,0,16.9,0.3,25.1-2c9.9-3,12.2-9.6,14.9-21.8c0.7-3.3,1.7-4.6,3-4.6c2,0,2,3,2,5c0,2.3-2.6,23.2-3.6,28.8
		c-1.3,6.6-3.6,7.3-14.6,7.3c-21.8,0-31.1-0.7-42.7-0.7c-11.6-0.3-26.8-1-39-1c-7.6,0-13.9,1-21.8,1c-3,0-4.6-0.7-4.6-2.3
		c0-1.3,1.3-2.3,3-2.3c2,0,4.3-0.3,6.6-1c6-1.3,9.9-5.6,10.6-26.1c0.3-11.2,0.7-24.8,0.7-49.9V283.3z"/>
	<path d="M1405.2,388.2c-28.1-24.5-35.4-56.9-35.4-84.3c0-18.5,7.3-51.3,33.4-76.4c17.9-17.2,44.7-29.4,89-29.4
		c15.2,0,27.5,1.3,43.7,3.6c10.6,1.7,21.2,3.3,29.1,3.6c2.6,0,3,1.7,3,3.3c0,2.6-1,5.6-1.7,16.2c-0.3,9.3-0.3,26.5-0.7,30.4
		c-0.3,4.6-1,6.3-2.6,6.3c-2.3,0-2.6-2-2.6-6.3c0-9.6-4.6-22.5-12.9-28.8c-9.9-8.6-33.1-16.9-58.5-16.9c-36.7,0-53.6,10.3-63.5,19.2
		c-21.5,19.5-26.5,43.3-26.5,72.4c0,54.9,44.7,103.2,102.9,103.2c22.5,0,39-2.3,50.6-13.6c6-6.3,9.3-14.6,10.9-23.8
		c0.7-3.3,1.7-5,3.6-5c1.7,0,1.7,2.3,1.7,4.6c0,2.6-4.3,29.4-6.6,36.7c-2,5.3-3,6.3-7.6,8.3c-11.6,5-33.7,6.6-52.3,6.6
		C1458.5,418.3,1428.7,408.4,1405.2,388.2z"/>
	<path d="M1666.2,333.9c-1.7,0-2.6,1-3.3,2.6l-14.6,41.3c-3.3,9.3-5.6,18.2-5.6,23.5c0,6,3.6,8.6,10.9,8.6c1,0,1.3,0,2.3,0
		c3,0,4,1,4,2.3c0,1.7-2.6,2.3-5,2.3c-7.3,0-22.5-1-26.1-1c-3.3,0-17.9,1-31.8,1c-3.6,0-5.3-0.7-5.3-2.3c0-1.3,1.3-2.3,4-2.3
		c1.7,0,4.6,0,6.6-0.3c14.2-1.3,19.8-12.2,25.5-26.1l66.2-174.3c3.6-9.6,4.6-11.2,6.9-11.2c1.7,0,3,1.3,6.6,10.6
		c4.6,10.9,49.6,126.3,67.1,167.7c10.9,26.1,20.5,30.4,25.1,32.1c4.3,1.7,8.9,1.7,11.2,1.7s4,0.7,4,2.3c0,1.7-1.3,2.3-5,2.3
		c-3.3,0-28.1,0-50.3-0.7c-6.3-0.3-8.3-0.7-8.3-2.3c0-1,1-2,2.3-2.3c1.3-0.7,3.3-2.3,1.3-7.3l-26.1-66.5c-0.7-1-1.3-1.7-2.6-1.7
		H1666.2z M1722.4,322.4c1.3,0,1.3-1,1-2l-26.1-73.1c-1.7-4.6-2-4.6-3.6,0l-24.8,73.1c-0.7,1.3,0,2,0.7,2H1722.4z"/>
</g>
<g>
	<rect x="140.8" y="84.5" width="204.5" height="18.4"/>
	<rect x="111.7" y="47.1" width="262.3" height="18.4"/>
	<rect x="145.8" y="159.9" width="18.4" height="346.1"/>
	<rect x="192.6" y="199.6" width="15.1" height="331.1"/>
	<rect x="234.4" y="199.6" width="18.4" height="354.1"/>
	<rect x="279.5" y="199.6" width="15.1" height="331.1"/>
	<rect x="323.1" y="159.9" width="18.4" height="346.2"/>
	<rect x="234.3" y="118" transform="matrix(2.979702e-03 -1 1 2.979702e-03 73.6647 412.1693)" width="18.4" height="102.3"/>
	<path d="M81.1,122.5c-33,0.3-59.8,27.2-59.8,60.3c0,17,7.1,33.3,19.4,44.9c10.7,10.1,24.1,15.5,38.2,15.5c0.3,0,0.7,0,1,0
		c0.1,0,0.1,0,0.2,0c11.5,0,23.1-3.4,33-9.7c5.4-3.4,9.9-8.4,13-14.4c5.5-10.6,6.1-23,1.5-34.1c-2.1-5.5-5.5-10.2-8.5-14
		c-1.9-2.4-4.1-4.5-6.7-6.2c-6.1-4.3-13.6-6.3-21.2-5.7c-9.9,0.8-15.6,2.8-23.7,8.4L78,182.7c5.4-3.7,8-4.6,14.6-5.2
		c3.3-0.3,6.5,0.6,9.1,2.4c1.1,0.8,2,1.6,2.8,2.6c2.2,2.7,4.6,6,5.7,9.1l0.2,0.4c2.5,6,2.2,12.8-0.8,18.6c-1.6,3.1-3.9,5.6-6.5,7.3
		c-6.6,4.2-14.4,6.6-22.1,6.8l0,0c-0.4,0-0.7,0-1.1,0c-0.5,0-1,0-1.5,0l0,0c-9.2-0.1-18.1-3.8-25.2-10.5
		c-8.6-8.1-13.6-19.6-13.6-31.5c0-23.1,18.8-41.9,41.9-41.9l323.9-0.3c23.1,0,41.9,18.8,41.9,41.9c0,11.9-4.9,23.4-13.6,31.5
		c-7.1,6.7-16,10.3-25.2,10.4l0,0c-0.5,0-1,0-1.5,0c-0.4,0-0.7,0-1.1,0l0,0c-7.7-0.2-15.5-2.5-22.1-6.8c-2.7-1.7-4.9-4.2-6.5-7.3
		c-3-5.8-3.3-12.5-0.8-18.5l0.2-0.5c1.2-3.2,3.6-6.4,5.7-9.1c0.8-1,1.7-1.8,2.8-2.6c2.6-1.8,5.9-2.7,9.1-2.4
		c6.7,0.5,9.3,1.5,14.6,5.2l10.5-15.2c-8-5.6-13.8-7.6-23.7-8.4c-7.6-0.6-15.1,1.4-21.2,5.7c-2.5,1.8-4.8,3.9-6.7,6.2
		c-3,3.8-6.4,8.5-8.5,14c-4.6,11.1-4,23.5,1.5,34.1c3.1,6,7.6,10.9,13,14.4c9.8,6.3,21.5,9.7,33,9.7c0.1,0,0.1,0,0.2,0
		c0.3,0,0.7,0,1,0c14.1,0,27.6-5.4,38.2-15.5c12.3-11.6,19.4-28,19.4-44.9c0-32-25-58.2-56.6-60.2L81.1,122.5z"/>
</g>
</svg>
