<?xml version="1.0" encoding="utf-8"?>
<!-- Generator: Adobe Illustrator 19.2.1, SVG Export Plug-In . SVG Version: 6.00 Build 0)  -->
<svg version="1.1" id="Layer_1" xmlns="http://www.w3.org/2000/svg" xmlns:xlink="http://www.w3.org/1999/xlink" x="0px" y="0px"
	 viewBox="0 0 592.7 200" style="enable-background:new 0 0 592.7 200;" xml:space="preserve">
<g>
	<path d="M186.5,137.5c-1.5-0.7-1.6-1.2-1.6-4.1c0-5.3,0.4-9.6,0.5-11.3c0.1-1.2,0.3-1.7,0.9-1.7c0.6,0,0.7,0.3,0.7,1.2
		c0,1,0,2.5,0.3,3.9c1.6,7.9,8.6,10.9,15.8,10.9c10.2,0,15.3-7.4,15.3-14.2c0-7.4-3.1-11.6-12.3-19.2l-4.8-3.9
		C190,89.8,187.4,83.2,187.4,76c0-11.4,8.5-19.2,22.1-19.2c4.2,0,7.3,0.4,9.9,1.1c2,0.4,2.9,0.5,3.7,0.5c0.9,0,1.1,0.2,1.1,0.7
		c0,0.5-0.4,4.1-0.4,11.3c0,1.7-0.2,2.5-0.7,2.5c-0.6,0-0.7-0.5-0.9-1.4c-0.1-1.3-0.7-4.2-1.4-5.3c-0.6-1.2-3.5-5.7-13.3-5.7
		c-7.4,0-13.1,4.6-13.1,12.4c0,6.1,2.8,9.9,13,17.9l3,2.3c12.6,9.9,15.6,16.5,15.6,25.1c0,4.4-1.7,12.5-9.1,17.7
		c-4.6,3.2-10.4,4.5-16.1,4.5C195.7,140.4,190.8,139.7,186.5,137.5z"/>
	<path d="M248.5,96.6c0-14,0-16.5-0.2-19.4c-0.2-3-1-4.5-4.1-5.1c-0.6-0.1-1.7-0.2-2.6-0.2c-0.7,0-1.4-0.3-1.4-0.6
		c0-0.6,0.5-0.9,1.6-0.9c2.1,0,5,0.2,11,0.3c0.5,0,19.5,0,21.7-0.1c2.1-0.1,3.3-0.2,4.2-0.5c0.6-0.2,0.7-0.3,1.2-0.3
		c0.2,0,0.4,0.2,0.4,0.7c0,0.6-0.6,2.1-0.9,4.8c-0.1,1.8-0.2,3.5-0.3,5.5c0,1-0.2,1.6-0.7,1.6c-0.5,0-0.7-0.4-0.7-1.2
		c-0.1-1.6-0.4-2.7-0.7-3.4c-0.6-2.1-1.6-2.9-6.9-3.2c-1.4-0.1-12-0.2-12.2-0.2c-0.3,0-0.5,0.2-0.5,0.9v24.2c0,0.6,0.1,1.1,0.6,1.1
		c1.3,0,12.2-0.1,14.4-0.3c2.5-0.1,4.1-0.4,4.9-1.6c0.4-0.6,0.7-0.9,1.2-0.9c0.2,0,0.4,0.1,0.4,0.6c0,0.5-0.4,2.6-0.7,5.7
		c-0.3,3-0.3,5.1-0.4,6.5c-0.1,0.9-0.3,1.2-0.7,1.2c-0.5,0-0.6-0.6-0.6-1.4c0-0.6-0.1-1.7-0.3-2.6c-0.4-1.4-1.1-2.9-5.1-3.2
		c-2.5-0.2-11.1-0.4-12.8-0.4c-0.6,0-0.7,0.3-0.7,0.7v7.8c0,3.3-0.1,12.7,0,14.5c0.2,3.9,0.7,6,3,6.9c1.6,0.7,4.2,1,7.8,1
		c2,0,5.4,0.1,8.1-0.6c3.2-1,3.9-3.1,4.8-7c0.2-1.1,0.5-1.5,1-1.5c0.6,0,0.6,1,0.6,1.6c0,0.7-0.9,7.5-1.2,9.3
		c-0.4,2.1-1.2,2.3-4.7,2.3c-7,0-10-0.2-13.8-0.2c-3.7-0.1-8.6-0.3-12.6-0.3c-2.5,0-4.5,0.3-7,0.3c-1,0-1.5-0.2-1.5-0.7
		c0-0.4,0.4-0.7,1-0.7c0.6,0,1.4-0.1,2.1-0.3c1.9-0.4,3.2-1.8,3.4-8.4c0.1-3.6,0.2-8,0.2-16.1V96.6z"/>
	<path d="M303.4,73.4c0-3.3,0.3-4.4,1.2-4.4c0.7,0,2.6,2.1,3.3,2.9c1,1.1,15.8,16.2,30.7,31.5c8.3,8.1,19,19.1,21.8,21.7l-1.2-44.4
		c-0.1-5.8-0.7-7.7-3.6-8.4c-1.8-0.3-3.4-0.4-4.2-0.4c-1.1,0-1.3-0.4-1.3-0.9c0-0.5,0.9-0.6,1.9-0.6c4.6,0,9.1,0.3,10,0.3
		c1.1,0,4.4-0.3,8.5-0.3c1.2,0,1.5,0.1,1.5,0.6c0,0.4-0.3,0.7-1,0.9c-0.6,0.1-1.5,0.1-2.7,0.3c-2.5,0.5-3.2,1.6-3.2,8l-0.2,53.6
		c0,5.3-0.2,5.9-1,5.9c-0.7,0-1.8-0.7-7-5.7c-0.4-0.2-15.3-14.9-24.5-24c-11.1-11.5-21.8-22.6-24.4-25.4l1.4,41.7
		c0.2,7.4,0.9,10.1,3.5,10.8c1.7,0.4,3.5,0.4,4.4,0.4c0.9,0,1.3,0.3,1.3,0.7c0,0.5-0.5,0.7-1.7,0.7c-5.8,0-9.6-0.3-10.4-0.3
		c-0.7,0-4.7,0.3-9.3,0.3c-1,0-1.6-0.1-1.6-0.7c0-0.4,0.4-0.7,1.5-0.7c0.7,0,1.9,0,3.3-0.4c2.3-0.7,2.9-3.6,2.9-11.4
		C303.4,74.7,303.5,91.1,303.4,73.4z"/>
	<path d="M395.8,96.6c0-14,0-16.5-0.2-19.4c-0.2-3-1-4.5-4.1-5.1c-0.6-0.1-1.7-0.2-2.6-0.2c-0.7,0-1.4-0.3-1.4-0.6
		c0-0.6,0.5-0.9,1.6-0.9c2.1,0,5,0.2,11,0.3c0.5,0,19.5,0,21.7-0.1c2.1-0.1,3.3-0.2,4.2-0.5c0.6-0.2,0.7-0.3,1.2-0.3
		c0.2,0,0.4,0.2,0.4,0.7c0,0.6-0.6,2.1-0.9,4.8c-0.1,1.8-0.2,3.5-0.3,5.5c0,1-0.2,1.6-0.7,1.6c-0.5,0-0.7-0.4-0.7-1.2
		c-0.1-1.6-0.4-2.7-0.7-3.4c-0.6-2.1-1.6-2.9-6.9-3.2c-1.4-0.1-12-0.2-12.2-0.2c-0.3,0-0.5,0.2-0.5,0.9v24.2c0,0.6,0.1,1.1,0.6,1.1
		c1.3,0,12.2-0.1,14.4-0.3c2.5-0.1,4.1-0.4,4.9-1.6c0.4-0.6,0.7-0.9,1.2-0.9c0.2,0,0.4,0.1,0.4,0.6c0,0.5-0.4,2.6-0.7,5.7
		c-0.3,3-0.3,5.1-0.4,6.5c-0.1,0.9-0.3,1.2-0.7,1.2c-0.5,0-0.6-0.6-0.6-1.4c0-0.6-0.1-1.7-0.3-2.6c-0.4-1.4-1.1-2.9-5.1-3.2
		c-2.5-0.2-11.1-0.4-12.8-0.4c-0.6,0-0.7,0.3-0.7,0.7v7.8c0,3.3-0.1,12.7,0,14.5c0.2,3.9,0.7,6,3,6.9c1.6,0.7,4.2,1,7.8,1
		c2,0,5.4,0.1,8.1-0.6c3.2-1,3.9-3.1,4.8-7c0.2-1.1,0.5-1.5,1-1.5c0.6,0,0.6,1,0.6,1.6c0,0.7-0.9,7.5-1.2,9.3
		c-0.4,2.1-1.2,2.3-4.7,2.3c-7,0-10-0.2-13.8-0.2c-3.7-0.1-8.6-0.3-12.6-0.3c-2.5,0-4.5,0.3-7,0.3c-1,0-1.5-0.2-1.5-0.7
		c0-0.4,0.4-0.7,1-0.7c0.6,0,1.4-0.1,2.1-0.3c1.9-0.4,3.2-1.8,3.4-8.4c0.1-3.6,0.2-8,0.2-16.1V96.6z"/>
	<path d="M454.4,130.4c-9.1-7.9-11.4-18.4-11.4-27.2c0-6,2.3-16.5,10.8-24.6c5.8-5.5,14.4-9.5,28.7-9.5c4.9,0,8.9,0.4,14.1,1.2
		c3.4,0.5,6.8,1.1,9.4,1.2c0.9,0,1,0.5,1,1.1c0,0.9-0.3,1.8-0.5,5.2c-0.1,3-0.1,8.5-0.2,9.8c-0.1,1.5-0.3,2-0.9,2
		c-0.7,0-0.9-0.6-0.9-2c0-3.1-1.5-7.3-4.2-9.3c-3.2-2.8-10.7-5.4-18.9-5.4c-11.8,0-17.3,3.3-20.5,6.2c-6.9,6.3-8.5,14-8.5,23.4
		c0,17.7,14.4,33.3,33.2,33.3c7.3,0,12.6-0.7,16.3-4.4c1.9-2,3-4.7,3.5-7.7c0.2-1.1,0.5-1.6,1.2-1.6c0.5,0,0.5,0.7,0.5,1.5
		c0,0.9-1.4,9.5-2.1,11.8c-0.6,1.7-1,2-2.5,2.7c-3.7,1.6-10.9,2.1-16.9,2.1C471.6,140.1,462,136.9,454.4,130.4z"/>
	<path d="M538.6,112.9c-0.5,0-0.9,0.3-1.1,0.9l-4.7,13.3c-1.1,3-1.8,5.9-1.8,7.6c0,1.9,1.2,2.8,3.5,2.8c0.3,0,0.4,0,0.7,0
		c1,0,1.3,0.3,1.3,0.7c0,0.5-0.9,0.7-1.6,0.7c-2.3,0-7.3-0.3-8.4-0.3c-1.1,0-5.8,0.3-10.2,0.3c-1.2,0-1.7-0.2-1.7-0.7
		c0-0.4,0.4-0.7,1.3-0.7c0.5,0,1.5,0,2.1-0.1c4.6-0.4,6.4-3.9,8.2-8.4l21.3-56.2c1.2-3.1,1.5-3.6,2.2-3.6c0.5,0,1,0.4,2.1,3.4
		c1.5,3.5,16,40.8,21.7,54.1c3.5,8.4,6.6,9.8,8.1,10.4c1.4,0.5,2.9,0.5,3.6,0.5s1.3,0.2,1.3,0.7c0,0.5-0.4,0.7-1.6,0.7
		c-1.1,0-9.1,0-16.2-0.2c-2-0.1-2.7-0.2-2.7-0.7c0-0.3,0.3-0.6,0.7-0.7c0.4-0.2,1.1-0.7,0.4-2.3l-8.4-21.4c-0.2-0.3-0.4-0.5-0.9-0.5
		H538.6z M556.7,109.2c0.4,0,0.4-0.3,0.3-0.6l-8.4-23.6c-0.5-1.5-0.6-1.5-1.2,0l-8,23.6c-0.2,0.4,0,0.6,0.2,0.6H556.7z"/>
</g>
<g>
	<rect x="46.5" y="32.4" width="66" height="5.9"/>
	<rect x="37.1" y="20.4" width="84.6" height="5.9"/>
	<rect x="48.1" y="56.8" width="5.9" height="111.7"/>
	<rect x="63.2" y="69.6" width="4.9" height="106.8"/>
	<rect x="76.7" y="69.6" width="5.9" height="114.2"/>
	<rect x="91.2" y="69.6" width="4.9" height="106.8"/>
	<rect x="105.3" y="56.8" width="5.9" height="111.7"/>
	<rect x="76.6" y="43.2" transform="matrix(2.989789e-03 -1 1 2.989789e-03 19.646 139.1643)" width="5.9" height="33"/>
	<path d="M27.2,44.7C16.6,44.8,7.9,53.5,7.9,64.2c0,5.5,2.3,10.8,6.2,14.5c3.4,3.2,7.8,5,12.3,5c0.1,0,0.2,0,0.3,0c0,0,0,0,0.1,0
		c0.2,0,0.4,0,0.5,0c0,0,0.1,0,0.1,0l0,0c3.5-0.1,7-1.2,10-3.1c1.7-1.1,3.2-2.7,4.2-4.6c1.8-3.4,2-7.4,0.5-11
		c-0.7-1.8-1.8-3.3-2.8-4.5c-0.6-0.8-1.3-1.4-2.1-2c-2-1.4-4.4-2-6.8-1.8c-3.2,0.3-5,0.9-7.6,2.7l3.4,4.9c1.7-1.2,2.6-1.5,4.7-1.7
		c1.1-0.1,2.1,0.2,3,0.8c0.4,0.2,0.7,0.5,0.9,0.8c0.7,0.9,1.5,1.9,1.9,3l0.1,0.1c0.8,1.9,0.7,4.1-0.3,6c-0.5,1-1.2,1.8-2.1,2.4
		c-2.1,1.4-4.6,2.1-7.1,2.2l0,0c-0.1,0-0.2,0-0.3,0c-0.2,0-0.3,0-0.5,0l0,0c-3,0-5.8-1.2-8.1-3.4c-2.8-2.6-4.4-6.3-4.4-10.2
		c0-7.5,6.1-13.5,13.5-13.5l104.5-0.1c7.5,0,13.5,6.1,13.5,13.5c0,3.8-1.6,7.5-4.4,10.2c-2.3,2.2-5.2,3.3-8.1,3.4l0,0
		c-0.2,0-0.3,0-0.5,0c-0.1,0-0.2,0-0.3,0l0,0c-2.5-0.1-5-0.8-7.1-2.2c-0.9-0.6-1.6-1.4-2.1-2.4c-1-1.9-1.1-4-0.3-6l0-0.1
		c0.4-1,1.2-2.1,1.9-2.9c0.2-0.3,0.6-0.6,0.9-0.8c0.8-0.6,1.9-0.9,3-0.8c2.1,0.2,3,0.5,4.7,1.7l3.4-4.9c-2.6-1.8-4.4-2.5-7.6-2.7
		c-2.4-0.2-4.9,0.5-6.8,1.8c-0.8,0.6-1.5,1.2-2.1,2c-1,1.2-2.1,2.8-2.8,4.5c-1.5,3.6-1.3,7.6,0.5,11c1,1.9,2.4,3.5,4.2,4.6
		c3,1.9,6.5,3,10,3.1l0,0c0,0,0.1,0,0.1,0c0.2,0,0.4,0,0.6,0c0,0,0,0,0.1,0c0.1,0,0.2,0,0.3,0c4.5,0,8.9-1.8,12.3-5
		c4-3.7,6.2-9,6.2-14.5c0-10.3-8.1-18.8-18.2-19.4L27.2,44.7z"/>
</g>
</svg>
