<?xml version="1.0" standalone="no"?>
<!DOCTYPE svg PUBLIC "-//W3C//DTD SVG 1.1//EN" "http://www.w3.org/Graphics/SVG/1.1/DTD/svg11.dtd">
<svg width="100%" height="100%" viewBox="0 0 800 200" version="1.1" xmlns="http://www.w3.org/2000/svg" xmlns:xlink="http://www.w3.org/1999/xlink" xml:space="preserve" style="fill-rule:evenodd;clip-rule:evenodd;stroke-linejoin:round;stroke-miterlimit:1.41421;">
    <g transform="matrix(1.00269,0,0,1.00269,-2.15865,-160.85)">
        <g id="Layer1">
            <g>
                <g transform="matrix(1.15907,0,0,1.15907,-49.8917,-41.9102)">
                    <g transform="matrix(0.48141,0,0,0.653053,74.45,37.6535)">
                        <path d="M79.474,422.412L85.75,292.157L101.25,292.157L106.895,409.317C96.785,413.546 87.574,417.955 79.474,422.412Z" style="fill:black;"/>
                    </g>
                    <g transform="matrix(0.513668,0,0,0.54736,95.3669,68.5326)">
                        <path d="M79.486,422.163L85.75,292.157L101.25,292.157L106.987,411.228C102.666,412.707 98.285,414.333 93.882,416.068C88.965,418.006 84.171,420.022 79.486,422.163Z" style="fill:black;"/>
                    </g>
                    <g transform="matrix(0.449152,0,0,0.429232,126.096,103.045)">
                        <path d="M78.851,435.347L85.75,292.157L101.25,292.157L107.802,428.138C98.59,429.889 88.888,432.291 78.851,435.347Z" style="fill:black;"/>
                    </g>
                    <g transform="matrix(0.653086,0,0,0.768041,45.4324,100.757)">
                        <path d="M234.875,134.5C234.875,132.016 232.503,130 229.583,130L67.292,130C64.371,130 62,132.016 62,134.5L62,143.5C62,145.984 64.371,148 67.292,148L229.583,148C232.503,148 234.875,145.984 234.875,143.5L234.875,134.5Z" style="fill:black;"/>
                    </g>
                    <g transform="matrix(0.879536,0,0,0.879536,84.2775,-139.779)">
                        <path d="M127.144,387C130.435,387 145.541,395.722 147.186,398.572C148.832,401.422 148.832,418.865 147.186,421.715C145.541,424.565 130.435,433.287 127.144,433.287C123.853,433.287 108.746,424.565 107.101,421.715C105.455,418.865 105.455,401.422 107.101,398.572C108.746,395.722 123.853,387 127.144,387Z" style="fill:black;"/>
                    </g>
                    <g transform="matrix(0.879536,0,0,0.879536,-23.0016,-139.779)">
                        <path d="M127.144,387C130.435,387 145.541,395.722 147.186,398.572C148.832,401.422 148.832,418.865 147.186,421.715C145.541,424.565 130.435,433.287 127.144,433.287C123.853,433.287 108.746,424.565 107.101,421.715C105.455,418.865 105.455,401.422 107.101,398.572C108.746,395.722 123.853,387 127.144,387Z" style="fill:black;"/>
                    </g>
                </g>
                <g transform="matrix(1.15907,0,0,1.15907,-126.615,6.72978)">
                    <text x="294.219px" y="248.237px" style="font-family:Cinzel;font-size:128px;fill:black;">SenecA</text>
                </g>
            </g>
        </g>
    </g>
</svg>
