<?xml version="1.0" standalone="no"?>
<!DOCTYPE svg PUBLIC "-//W3C//DTD SVG 1.1//EN" "http://www.w3.org/Graphics/SVG/1.1/DTD/svg11.dtd">
<svg width="100%" height="100%" viewBox="0 0 2500 625" version="1.1" xmlns="http://www.w3.org/2000/svg" xmlns:xlink="http://www.w3.org/1999/xlink" xml:space="preserve" style="fill-rule:evenodd;clip-rule:evenodd;stroke-linejoin:round;stroke-miterlimit:1.41421;">
    <g transform="matrix(3.125,0,0,3.125,-0,-0)">
        <g transform="matrix(1.00269,0,0,1.00269,-2.15865,-160.85)">
            <g id="Layer1">
                <g>
                    <g transform="matrix(1.15907,0,0,1.15907,-49.8917,-41.9102)">
                        <g transform="matrix(0.48141,0,0,0.653053,74.45,37.6535)">
                            <path d="M79.474,422.412L85.75,292.157L101.25,292.157L106.895,409.317C96.785,413.546 87.574,417.955 79.474,422.412Z" style="fill:black;"/>
                        </g>
                        <g transform="matrix(0.513668,0,0,0.54736,95.3669,68.5326)">
                            <path d="M79.486,422.163L85.75,292.157L101.25,292.157L106.987,411.228C102.666,412.707 98.285,414.333 93.882,416.068C88.965,418.006 84.171,420.022 79.486,422.163Z" style="fill:black;"/>
                        </g>
                        <g transform="matrix(0.449152,0,0,0.429232,126.096,103.045)">
                            <path d="M78.851,435.347L85.75,292.157L101.25,292.157L107.802,428.138C98.59,429.889 88.888,432.291 78.851,435.347Z" style="fill:black;"/>
                        </g>
                        <g transform="matrix(0.653086,0,0,0.768041,45.4324,100.757)">
                            <path d="M234.875,134.5C234.875,132.016 232.503,130 229.583,130L67.292,130C64.371,130 62,132.016 62,134.5L62,143.5C62,145.984 64.371,148 67.292,148L229.583,148C232.503,148 234.875,145.984 234.875,143.5L234.875,134.5Z" style="fill:black;"/>
                        </g>
                        <g transform="matrix(0.879536,0,0,0.879536,84.2775,-139.779)">
                            <path d="M127.144,387C130.435,387 145.541,395.722 147.186,398.572C148.832,401.422 148.832,418.865 147.186,421.715C145.541,424.565 130.435,433.287 127.144,433.287C123.853,433.287 108.746,424.565 107.101,421.715C105.455,418.865 105.455,401.422 107.101,398.572C108.746,395.722 123.853,387 127.144,387Z" style="fill:black;"/>
                        </g>
                        <g transform="matrix(0.879536,0,0,0.879536,-23.0016,-139.779)">
                            <path d="M127.144,387C130.435,387 145.541,395.722 147.186,398.572C148.832,401.422 148.832,418.865 147.186,421.715C145.541,424.565 130.435,433.287 127.144,433.287C123.853,433.287 108.746,424.565 107.101,421.715C105.455,418.865 105.455,401.422 107.101,398.572C108.746,395.722 123.853,387 127.144,387Z" style="fill:black;"/>
                        </g>
                    </g>
                    <g transform="matrix(1.15907,0,0,1.15907,-126.615,6.72978)">
                        <path d="M302.027,242.989C301.771,241.795 301.643,239.491 301.643,236.077C301.643,232.664 302.283,229.037 303.563,225.197L304.715,225.197C304.629,226.136 304.587,227.075 304.587,228.013C304.587,233.219 306.165,237.549 309.323,241.005C312.48,244.461 316.661,246.189 321.867,246.189C327.243,246.189 331.659,244.568 335.115,241.325C338.571,238.083 340.299,234.008 340.299,229.101C340.299,224.195 338.635,220.205 335.307,217.133L310.731,194.349C306.123,190.083 303.819,184.92 303.819,178.861C303.819,172.803 305.845,167.619 309.899,163.309C313.952,159 319.435,156.845 326.347,156.845C329.589,156.845 333.259,157.272 337.355,158.125L342.347,158.125L342.347,173.869L341.195,173.869C341.195,169.859 339.808,166.659 337.035,164.269C334.261,161.88 330.699,160.685 326.347,160.685C321.995,160.685 318.347,162.136 315.403,165.037C312.459,167.939 310.987,171.565 310.987,175.917C310.987,180.269 312.693,184.024 316.107,187.181L341.323,210.477C345.589,214.403 347.723,219.779 347.723,226.605C347.723,233.432 345.547,239.043 341.195,243.437C336.843,247.832 331.04,250.029 323.787,250.029C320.032,250.029 316.043,249.453 311.819,248.301C307.595,247.149 304.331,245.379 302.027,242.989Z" style="fill:black;fill-rule:nonzero;"/>
                        <path d="M363.851,246.957C365.899,246.957 367.627,246.296 369.035,244.973C370.443,243.651 371.189,242.051 371.275,240.173L371.275,179.373C371.275,177.496 370.549,175.917 369.099,174.637C367.648,173.357 365.899,172.717 363.851,172.717L362.059,172.717L362.059,171.437L399.435,171.437C402.933,171.437 406.005,171.181 408.651,170.669C411.296,170.157 413.003,169.731 413.771,169.389L413.771,183.981L412.363,183.853L412.363,181.933C412.363,180.141 411.765,178.605 410.571,177.325C409.376,176.045 407.84,175.405 405.963,175.405L379.339,175.405L379.339,207.917L401.227,207.917C402.933,207.917 404.235,207.405 405.131,206.381C406.027,205.357 406.475,204.077 406.475,202.541L406.475,200.877L407.883,200.877L407.883,218.797L406.475,218.797L406.475,217.133C406.475,214.744 405.579,213.123 403.787,212.269C403.104,212.013 402.379,211.843 401.611,211.757L379.339,211.757L379.339,244.269L399.435,244.269C403.36,244.269 406.667,243.587 409.355,242.221C412.043,240.856 414.091,239.235 415.499,237.357C416.907,235.48 418.336,233.005 419.787,229.933L421.067,229.933L414.027,248.237L362.059,248.237L362.059,246.957L363.851,246.957Z" style="fill:black;fill-rule:nonzero;"/>
                        <path d="M517.963,172.717C516.085,172.717 514.464,173.336 513.099,174.573C511.733,175.811 511.008,177.325 510.923,179.117L510.923,233.645C510.923,238.595 511.221,243.288 511.819,247.725L512.075,250.029L510.923,250.029L444.363,186.925L444.363,240.301C444.363,242.179 445.045,243.757 446.411,245.037C447.776,246.317 449.44,246.957 451.403,246.957L453.579,246.957L453.579,248.237L429.387,248.237L429.387,246.957L431.563,246.957C433.525,246.957 435.189,246.317 436.555,245.037C437.92,243.757 438.603,242.179 438.603,240.301L438.603,185.517C438.603,180.312 438.304,175.661 437.707,171.565L437.451,169.517L438.859,169.645L505.291,232.237L505.291,179.117C505.12,177.325 504.352,175.811 502.987,174.573C501.621,173.336 500,172.717 498.123,172.717L495.947,172.717L495.947,171.437L520.139,171.437L520.139,172.717L517.963,172.717Z" style="fill:black;fill-rule:nonzero;"/>
                        <path d="M533.451,246.957C535.499,246.957 537.227,246.296 538.635,244.973C540.043,243.651 540.789,242.051 540.875,240.173L540.875,179.373C540.875,177.496 540.149,175.917 538.699,174.637C537.248,173.357 535.499,172.717 533.451,172.717L531.659,172.717L531.659,171.437L569.035,171.437C572.533,171.437 575.605,171.181 578.251,170.669C580.896,170.157 582.603,169.731 583.371,169.389L583.371,183.981L581.963,183.853L581.963,181.933C581.963,180.141 581.365,178.605 580.171,177.325C578.976,176.045 577.44,175.405 575.563,175.405L548.939,175.405L548.939,207.917L570.827,207.917C572.533,207.917 573.835,207.405 574.731,206.381C575.627,205.357 576.075,204.077 576.075,202.541L576.075,200.877L577.483,200.877L577.483,218.797L576.075,218.797L576.075,217.133C576.075,214.744 575.179,213.123 573.387,212.269C572.704,212.013 571.979,211.843 571.211,211.757L548.939,211.757L548.939,244.269L569.035,244.269C572.96,244.269 576.267,243.587 578.955,242.221C581.643,240.856 583.691,239.235 585.099,237.357C586.507,235.48 587.936,233.005 589.387,229.933L590.667,229.933L583.627,248.237L531.659,248.237L531.659,246.957L533.451,246.957Z" style="fill:black;fill-rule:nonzero;"/>
                        <path d="M612.235,239.149C604.683,231.981 600.907,222.189 600.907,209.773C600.907,197.357 604.683,187.565 612.235,180.397C619.787,173.229 630.091,169.645 643.147,169.645C648.437,169.645 653.771,170.328 659.147,171.693C664.523,173.059 669.173,174.936 673.099,177.325L675.915,195.501L674.763,195.501C671.093,180.824 660.512,173.485 643.019,173.485C632.864,173.485 624.843,176.728 618.955,183.213C613.067,189.699 610.123,198.573 610.123,209.837C610.123,217.176 611.445,223.555 614.091,228.973C616.736,234.392 620.576,238.595 625.611,241.581C630.645,244.568 636.491,246.061 643.147,246.061C649.803,246.061 655.627,245.059 660.619,243.053C665.611,241.048 669.749,237.741 673.035,233.133C676.32,228.525 678.176,222.808 678.603,215.981L679.755,215.981L678.347,233.517C675.019,238.637 670.197,242.669 663.883,245.613C657.568,248.557 650.656,250.029 643.147,250.029C630.091,249.944 619.787,246.317 612.235,239.149Z" style="fill:black;fill-rule:nonzero;"/>
                        <path d="M776.395,246.957L777.419,246.957L777.419,248.237L748.619,248.237L748.619,246.957L749.771,246.957C751.563,246.957 752.907,246.381 753.803,245.229C754.699,244.077 755.147,242.989 755.147,241.965C755.147,240.941 754.976,239.917 754.635,238.893L746.443,217.133L711.883,217.133L703.307,239.021C702.965,240.045 702.795,241.048 702.795,242.029C702.795,243.011 703.243,244.077 704.139,245.229C705.035,246.381 706.379,246.957 708.171,246.957L709.323,246.957L709.323,248.237L683.595,248.237L683.595,246.957L684.747,246.957C686.88,246.957 688.971,246.275 691.019,244.909C693.067,243.544 694.731,241.539 696.011,238.893L724.939,170.029C728.096,163.117 729.675,158.723 729.675,156.845L730.827,156.845L765.131,238.893C766.325,241.539 767.947,243.544 769.995,244.909C772.043,246.275 774.176,246.957 776.395,246.957ZM713.419,213.293L744.907,213.293L729.547,172.205L713.419,213.293Z" style="fill:black;fill-rule:nonzero;"/>
                    </g>
                </g>
            </g>
        </g>
    </g>
</svg>
