<?xml version="1.0" standalone="no"?><!DOCTYPE svg PUBLIC "-//W3C//DTD SVG 1.1//EN" "http://www.w3.org/Graphics/SVG/1.1/DTD/svg11.dtd"><svg width="100%" height="100%" viewBox="0 0 200 200" version="1.1" xmlns="http://www.w3.org/2000/svg" xmlns:xlink="http://www.w3.org/1999/xlink" xml:space="preserve" style="fill-rule:evenodd;clip-rule:evenodd;stroke-linejoin:round;stroke-miterlimit:1.41421;"><g id="Layer1"><g><path d="M61.555,170.89l3.794,-106.814l9.37,0l3.412,96.075c-6.111,3.469 -11.679,7.084 -16.576,10.739Z" style="fill:#000;"/><path d="M91.047,153.431l4.041,-89.355l9.998,0l3.7,81.84c-2.787,1.016 -5.613,2.134 -8.453,3.326c-3.171,1.333 -6.264,2.718 -9.286,4.189Z" style="fill:#000;"/><path d="M122.836,141.254l3.891,-77.178l8.742,0l3.696,73.292c-5.196,0.944 -10.668,2.239 -16.329,3.886Z" style="fill:#000;"/><path d="M169.692,33.45c0,-2.396 -1.945,-4.34 -4.34,-4.34l-133.092,0c-2.395,0 -4.34,1.944 -4.34,4.34l0,8.68c0,2.395 1.945,4.339 4.34,4.339l133.092,0c2.395,0 4.34,-1.944 4.34,-4.339l0,-8.68Z" style="fill:#000;"/><path d="M166.436,29.11c3.634,0 20.319,9.632 22.136,12.78c1.817,3.148 1.817,22.413 0,25.561c-1.817,3.147 -18.502,12.78 -22.136,12.78c-3.635,0 -20.319,-9.633 -22.136,-12.78c-1.818,-3.148 -1.818,-22.413 0,-25.561c1.817,-3.148 18.501,-12.78 22.136,-12.78Z" style="fill:#000;"/><path d="M31.564,29.11c3.635,0 20.319,9.632 22.136,12.78c1.818,3.148 1.818,22.413 0,25.561c-1.817,3.147 -18.501,12.78 -22.136,12.78c-3.634,0 -20.319,-9.633 -22.136,-12.78c-1.817,-3.148 -1.817,-22.413 0,-25.561c1.817,-3.148 18.502,-12.78 22.136,-12.78Z" style="fill:#000;"/></g></g></svg>